<?xml version="1.0" encoding="UTF-8"?><svg id="a" xmlns="http://www.w3.org/2000/svg" viewBox="0 0 560 480"><defs><style>.b{letter-spacing:0em;}.c,.d{font-family:Figtree-Bold, Figtree;font-variation-settings:'wght' 700;font-weight:700;}.e{letter-spacing:0em;}.f{letter-spacing:0em;}.g{font-size:13px;}.g,.h,.d{fill:#fff;}.i{fill:#001119;}.j{fill:#0bd979;}.k{fill:#485e66;}.l{letter-spacing:0em;}.m{letter-spacing:0em;}.n{letter-spacing:0em;}.o{letter-spacing:0em;}.p{letter-spacing:0em;}.q{stroke:#485e66;}.q,.r{stroke-width:2px;}.q,.r,.s{fill:none;stroke-miterlimit:10;}.r{stroke:#fff;}.t{letter-spacing:0em;}.d{font-size:20px;}.u{font-family:Figtree-Regular, Figtree;font-variation-settings:'wght' 400;}.s{stroke:#00303f;stroke-linecap:round;stroke-width:40px;}.v{letter-spacing:0em;}.w{letter-spacing:0em;}</style></defs><path class="s" d="m195,95s43.5-25.1,100-27.4c102.4-4.1,194.9,60.6,202.6,110.1,10.9,69.8-85,66.1-142.6,147.3s-210,50-210,50"/><g><rect class="i" x="91" y="331" width="108" height="88"/><path class="h" d="m198,332v86h-106v-86h106m2-2h-110v90h110v-90h0Z"/></g><line class="r" x1="415" y1="48.7" x2="415" y2="95"/><line class="r" x1="425" y1="274.3" x2="425" y2="311"/><circle class="j" cx="195" cy="95" r="15"/><path class="h" d="m415,22c7.2,0,13,5.8,13,13s-5.8,13-13,13-13-5.8-13-13,5.8-13,13-13m0-2c-8.3,0-15,6.7-15,15s6.7,15,15,15,15-6.7,15-15-6.7-15-15-15h0Z"/><line class="r" x1="382.3" y1="62.3" x2="415" y2="95"/><path class="h" d="m372.6,39.6c3.5,0,6.7,1.4,9.2,3.8,2.5,2.5,3.8,5.7,3.8,9.2s-1.4,6.7-3.8,9.2c-2.5,2.5-5.7,3.8-9.2,3.8s-6.7-1.4-9.2-3.8c-2.5-2.5-3.8-5.7-3.8-9.2s1.4-6.7,3.8-9.2c2.5-2.5,5.7-3.8,9.2-3.8m0-2c-3.8,0-7.7,1.5-10.6,4.4-5.9,5.9-5.9,15.4,0,21.2,2.9,2.9,6.8,4.4,10.6,4.4s7.7-1.5,10.6-4.4c5.9-5.9,5.9-15.4,0-21.2-2.9-2.9-6.8-4.4-10.6-4.4h0Z"/><line class="r" x1="368.7" y1="95" x2="415" y2="95"/><path class="h" d="m355,82c7.2,0,13,5.8,13,13s-5.8,13-13,13-13-5.8-13-13,5.8-13,13-13m0-2c-8.3,0-15,6.7-15,15s6.7,15,15,15,15-6.7,15-15-6.7-15-15-15h0Z"/><line class="r" x1="382.3" y1="127.7" x2="415" y2="95"/><path class="h" d="m372.6,124.4c3.5,0,6.7,1.4,9.2,3.8s3.8,5.7,3.8,9.2-1.4,6.7-3.8,9.2c-2.5,2.5-5.7,3.8-9.2,3.8s-6.7-1.4-9.2-3.8-3.8-5.7-3.8-9.2,1.4-6.7,3.8-9.2,5.7-3.8,9.2-3.8m0-2c-3.8,0-7.7,1.5-10.6,4.4-5.9,5.9-5.9,15.4,0,21.2,2.9,2.9,6.8,4.4,10.6,4.4s7.7-1.5,10.6-4.4c5.9-5.9,5.9-15.4,0-21.2-2.9-2.9-6.8-4.4-10.6-4.4h0Z"/><line class="r" x1="415" y1="141.3" x2="415" y2="95"/><path class="h" d="m415,142c7.2,0,13,5.8,13,13s-5.8,13-13,13-13-5.8-13-13,5.8-13,13-13m0-2c-8.3,0-15,6.7-15,15s6.7,15,15,15,15-6.7,15-15-6.7-15-15-15h0Z"/><line class="r" x1="447.7" y1="127.7" x2="415" y2="95"/><path class="h" d="m457.4,124.4c3.5,0,6.7,1.4,9.2,3.8s3.8,5.7,3.8,9.2-1.4,6.7-3.8,9.2c-2.5,2.5-5.7,3.8-9.2,3.8s-6.7-1.4-9.2-3.8-3.8-5.7-3.8-9.2,1.4-6.7,3.8-9.2,5.7-3.8,9.2-3.8m0-2c-3.8,0-7.7,1.5-10.6,4.4-5.9,5.9-5.9,15.4,0,21.2,2.9,2.9,6.8,4.4,10.6,4.4s7.7-1.5,10.6-4.4c5.9-5.9,5.9-15.4,0-21.2-2.9-2.9-6.8-4.4-10.6-4.4h0Z"/><line class="r" x1="461.3" y1="95" x2="415" y2="95"/><path class="h" d="m475,82c7.2,0,13,5.8,13,13s-5.8,13-13,13-13-5.8-13-13,5.8-13,13-13m0-2c-8.3,0-15,6.7-15,15s6.7,15,15,15,15-6.7,15-15-6.7-15-15-15h0Z"/><line class="r" x1="447.7" y1="62.3" x2="415" y2="95"/><path class="h" d="m457.4,39.6c3.5,0,6.7,1.4,9.2,3.8,2.5,2.5,3.8,5.7,3.8,9.2s-1.4,6.7-3.8,9.2c-2.5,2.5-5.7,3.8-9.2,3.8s-6.7-1.4-9.2-3.8c-2.5-2.5-3.8-5.7-3.8-9.2s1.4-6.7,3.8-9.2c2.5-2.5,5.7-3.8,9.2-3.8m0-2c-3.8,0-7.7,1.5-10.6,4.4-5.9,5.9-5.9,15.4,0,21.2,2.9,2.9,6.8,4.4,10.6,4.4s7.7-1.5,10.6-4.4c5.9-5.9,5.9-15.4,0-21.2-2.9-2.9-6.8-4.4-10.6-4.4h0Z"/><circle class="j" cx="415" cy="95" r="15"/><line class="q" x1="355" y1="278.7" x2="355" y2="325"/><path class="k" d="m355,252c7.2,0,13,5.8,13,13s-5.8,13-13,13-13-5.8-13-13,5.8-13,13-13m0-2c-8.3,0-15,6.7-15,15s6.7,15,15,15,15-6.7,15-15-6.7-15-15-15h0Z"/><line class="q" x1="322.3" y1="292.3" x2="355" y2="325"/><path class="k" d="m312.6,269.6c3.5,0,6.7,1.4,9.2,3.8,2.5,2.5,3.8,5.7,3.8,9.2s-1.4,6.7-3.8,9.2c-2.5,2.5-5.7,3.8-9.2,3.8s-6.7-1.4-9.2-3.8c-5.1-5.1-5.1-13.3,0-18.4,2.5-2.5,5.7-3.8,9.2-3.8m0-2c-3.8,0-7.7,1.5-10.6,4.4-5.9,5.9-5.9,15.4,0,21.2,2.9,2.9,6.8,4.4,10.6,4.4s7.7-1.5,10.6-4.4c5.9-5.9,5.9-15.4,0-21.2-2.9-2.9-6.8-4.4-10.6-4.4h0Z"/><line class="q" x1="308.7" y1="325" x2="355" y2="325"/><path class="k" d="m295,312c7.2,0,13,5.8,13,13s-5.8,13-13,13-13-5.8-13-13,5.8-13,13-13m0-2c-8.3,0-15,6.7-15,15s6.7,15,15,15,15-6.7,15-15-6.7-15-15-15h0Z"/><line class="q" x1="322.3" y1="357.7" x2="355" y2="325"/><path class="k" d="m312.6,354.4c3.5,0,6.7,1.4,9.2,3.8,2.5,2.5,3.8,5.7,3.8,9.2s-1.4,6.7-3.8,9.2c-2.5,2.5-5.7,3.8-9.2,3.8s-6.7-1.4-9.2-3.8c-5.1-5.1-5.1-13.3,0-18.4,2.5-2.5,5.7-3.8,9.2-3.8m0-2c-3.8,0-7.7,1.5-10.6,4.4-5.9,5.9-5.9,15.4,0,21.2,2.9,2.9,6.8,4.4,10.6,4.4s7.7-1.5,10.6-4.4c5.9-5.9,5.9-15.4,0-21.2-2.9-2.9-6.8-4.4-10.6-4.4h0Z"/><line class="q" x1="355" y1="371.3" x2="355" y2="325"/><path class="k" d="m355,372c7.2,0,13,5.8,13,13s-5.8,13-13,13-13-5.8-13-13,5.8-13,13-13m0-2c-8.3,0-15,6.7-15,15s6.7,15,15,15,15-6.7,15-15-6.7-15-15-15h0Z"/><line class="r" x1="411.3" y1="325" x2="365" y2="325"/><path class="h" d="m425,312c7.2,0,13,5.8,13,13s-5.8,13-13,13-13-5.8-13-13,5.8-13,13-13m0-2c-8.3,0-15,6.7-15,15s6.7,15,15,15,15-6.7,15-15-6.7-15-15-15h0Z"/><circle class="h" cx="425" cy="275" r="5"/><line class="r" x1="405.6" y1="278.2" x2="419.6" y2="312.1"/><circle class="h" cx="405.9" cy="278.8" r="5"/><line class="r" x1="389.2" y1="289.2" x2="415.1" y2="315.1"/><circle class="h" cx="389.6" cy="289.6" r="5"/><line class="r" x1="378.2" y1="305.6" x2="412.1" y2="319.6"/><circle class="h" cx="378.8" cy="305.9" r="5"/><line class="r" x1="378.2" y1="344.4" x2="412.1" y2="330.4"/><circle class="h" cx="378.8" cy="344.1" r="5"/><line class="r" x1="389.2" y1="360.8" x2="415.1" y2="334.9"/><circle class="h" cx="389.6" cy="360.4" r="5"/><line class="r" x1="405.6" y1="371.8" x2="419.6" y2="337.9"/><circle class="h" cx="405.9" cy="371.2" r="5"/><line class="r" x1="425" y1="375.7" x2="425" y2="339"/><circle class="h" cx="425" cy="375" r="5"/><line class="r" x1="444.4" y1="371.8" x2="430.4" y2="337.9"/><circle class="h" cx="444.1" cy="371.2" r="5"/><line class="r" x1="460.8" y1="360.8" x2="434.9" y2="334.9"/><circle class="h" cx="460.4" cy="360.4" r="5"/><line class="r" x1="471.8" y1="344.4" x2="437.9" y2="330.4"/><circle class="h" cx="471.2" cy="344.1" r="5"/><line class="r" x1="475.7" y1="325" x2="439" y2="325"/><circle class="h" cx="475" cy="325" r="5"/><line class="r" x1="471.8" y1="305.6" x2="437.9" y2="319.6"/><circle class="h" cx="471.2" cy="305.9" r="5"/><line class="r" x1="460.8" y1="289.2" x2="434.9" y2="315.1"/><circle class="h" cx="460.4" cy="289.6" r="5"/><line class="r" x1="444.4" y1="278.2" x2="430.4" y2="312.1"/><circle class="h" cx="444.1" cy="278.8" r="5"/><circle class="j" cx="355" cy="325" r="15"/><circle class="j" cx="145" cy="375" r="15"/><text class="g" transform="translate(91.5 103.3)"><tspan class="c"><tspan class="f" x="0" y="0">Y</tspan><tspan x="7.3" y="0">our s</tspan><tspan class="l" x="36.3" y="0">t</tspan><tspan x="41.4" y="0">ory</tspan></tspan><tspan class="u"><tspan x="-2.3" y="20">Concept or </tspan></tspan><tspan class="u"><tspan x="-20.8" y="38">comple</tspan><tspan class="n" x="23.3" y="38">t</tspan><tspan x="28.2" y="38">ed m</tspan><tspan class="v" x="57.9" y="38">o</tspan><tspan x="65.3" y="38">vie</tspan></tspan></text><text class="g" transform="translate(267.2 143.4)"><tspan class="c"><tspan x="0" y="0">Find comps</tspan></tspan><tspan class="u"><tspan class="b" x="-4.2" y="20">W</tspan><tspan x="7.7" y="20">e assemble </tspan></tspan><tspan class="u"><tspan x="-1.8" y="38">rela</tspan><tspan class="n" x="19.2" y="38">t</tspan><tspan x="24.1" y="38">ed titles</tspan></tspan></text><text class="g" transform="translate(416.7 403.5)"><tspan class="c"><tspan x="0" y="0">Analyse da</tspan><tspan class="l" x="65.3" y="0">t</tspan><tspan x="70.4" y="0">a</tspan></tspan><tspan class="u"><tspan class="b" x="-28.8" y="20">W</tspan><tspan x="-16.8" y="20">e collect hundreds of </tspan></tspan><tspan class="u"><tspan x="-19" y="38">rel</tspan><tspan class="w" x="-4.6" y="38">e</tspan><tspan class="m" x="2.3" y="38">v</tspan><tspan x="8.9" y="38">ant da</tspan><tspan class="n" x="45.1" y="38">t</tspan><tspan x="50" y="38">a points</tspan></tspan></text><text class="g" transform="translate(109.8 268.9)"><tspan class="c"><tspan x="0" y="0">Build report</tspan></tspan><tspan class="u"><tspan class="b" x="-32.3" y="20">W</tspan><tspan x="-20.4" y="20">e use AI </tspan><tspan class="n" x="29.1" y="20">t</tspan><tspan x="33.9" y="20">o assimila</tspan><tspan class="e" x="90.8" y="20">t</tspan><tspan x="95.7" y="20">e </tspan></tspan><tspan class="u"><tspan class="o" x=".3" y="38">k</tspan><tspan class="w" x="6.5" y="38">e</tspan><tspan x="13.4" y="38">y findings</tspan></tspan></text><text class="d" transform="translate(202.4 234)"><tspan x="0" y="0">H</tspan><tspan class="t" x="15" y="0">o</tspan><tspan x="26.2" y="0">w it </tspan><tspan class="p" x="65.7" y="0">w</tspan><tspan x="82.1" y="0">orks</tspan></text></svg>