<?xml version="1.0" encoding="UTF-8"?><svg id="a" xmlns="http://www.w3.org/2000/svg" viewBox="0 0 560 480"><defs><style>.b{fill:#001119;}.c{fill:#fff;}.d{fill:#0bd979;}.e{fill:#485e66;}.f{stroke:#485e66;}.f,.g{stroke-width:2px;}.f,.g,.h{fill:none;stroke-miterlimit:10;}.g{stroke:#fff;}.h{stroke:#00303f;stroke-linecap:round;stroke-width:40px;}</style></defs><path class="h" d="m195,95s43.5-25.1,100-27.4c102.4-4.1,194.9,60.6,202.6,110.1,10.9,69.8-85,66.1-142.6,147.3s-210,50-210,50"/><g><rect class="b" x="91" y="331" width="108" height="88"/><path class="c" d="m198,332v86h-106v-86h106m2-2h-110v90h110v-90h0Z"/></g><line class="g" x1="415" y1="48.7" x2="415" y2="95"/><line class="g" x1="425" y1="274.3" x2="425" y2="311"/><circle class="d" cx="195" cy="95" r="15"/><path class="c" d="m415,22c7.2,0,13,5.8,13,13s-5.8,13-13,13-13-5.8-13-13,5.8-13,13-13m0-2c-8.3,0-15,6.7-15,15s6.7,15,15,15,15-6.7,15-15-6.7-15-15-15h0Z"/><line class="g" x1="382.3" y1="62.3" x2="415" y2="95"/><path class="c" d="m372.6,39.6c3.5,0,6.7,1.4,9.2,3.8,2.5,2.5,3.8,5.7,3.8,9.2s-1.4,6.7-3.8,9.2c-2.5,2.5-5.7,3.8-9.2,3.8s-6.7-1.4-9.2-3.8c-2.5-2.5-3.8-5.7-3.8-9.2s1.4-6.7,3.8-9.2c2.5-2.5,5.7-3.8,9.2-3.8m0-2c-3.8,0-7.7,1.5-10.6,4.4-5.9,5.9-5.9,15.4,0,21.2,2.9,2.9,6.8,4.4,10.6,4.4s7.7-1.5,10.6-4.4c5.9-5.9,5.9-15.4,0-21.2-2.9-2.9-6.8-4.4-10.6-4.4h0Z"/><line class="g" x1="368.7" y1="95" x2="415" y2="95"/><path class="c" d="m355,82c7.2,0,13,5.8,13,13s-5.8,13-13,13-13-5.8-13-13,5.8-13,13-13m0-2c-8.3,0-15,6.7-15,15s6.7,15,15,15,15-6.7,15-15-6.7-15-15-15h0Z"/><line class="g" x1="382.3" y1="127.7" x2="415" y2="95"/><path class="c" d="m372.6,124.4c3.5,0,6.7,1.4,9.2,3.8s3.8,5.7,3.8,9.2-1.4,6.7-3.8,9.2c-2.5,2.5-5.7,3.8-9.2,3.8s-6.7-1.4-9.2-3.8-3.8-5.7-3.8-9.2,1.4-6.7,3.8-9.2,5.7-3.8,9.2-3.8m0-2c-3.8,0-7.7,1.5-10.6,4.4-5.9,5.9-5.9,15.4,0,21.2,2.9,2.9,6.8,4.4,10.6,4.4s7.7-1.5,10.6-4.4c5.9-5.9,5.9-15.4,0-21.2-2.9-2.9-6.8-4.4-10.6-4.4h0Z"/><line class="g" x1="415" y1="141.3" x2="415" y2="95"/><path class="c" d="m415,142c7.2,0,13,5.8,13,13s-5.8,13-13,13-13-5.8-13-13,5.8-13,13-13m0-2c-8.3,0-15,6.7-15,15s6.7,15,15,15,15-6.7,15-15-6.7-15-15-15h0Z"/><line class="g" x1="447.7" y1="127.7" x2="415" y2="95"/><path class="c" d="m457.4,124.4c3.5,0,6.7,1.4,9.2,3.8s3.8,5.7,3.8,9.2-1.4,6.7-3.8,9.2c-2.5,2.5-5.7,3.8-9.2,3.8s-6.7-1.4-9.2-3.8-3.8-5.7-3.8-9.2,1.4-6.7,3.8-9.2,5.7-3.8,9.2-3.8m0-2c-3.8,0-7.7,1.5-10.6,4.4-5.9,5.9-5.9,15.4,0,21.2,2.9,2.9,6.8,4.4,10.6,4.4s7.7-1.5,10.6-4.4c5.9-5.9,5.9-15.4,0-21.2-2.9-2.9-6.8-4.4-10.6-4.4h0Z"/><line class="g" x1="461.3" y1="95" x2="415" y2="95"/><path class="c" d="m475,82c7.2,0,13,5.8,13,13s-5.8,13-13,13-13-5.8-13-13,5.8-13,13-13m0-2c-8.3,0-15,6.7-15,15s6.7,15,15,15,15-6.7,15-15-6.7-15-15-15h0Z"/><line class="g" x1="447.7" y1="62.3" x2="415" y2="95"/><path class="c" d="m457.4,39.6c3.5,0,6.7,1.4,9.2,3.8,2.5,2.5,3.8,5.7,3.8,9.2s-1.4,6.7-3.8,9.2c-2.5,2.5-5.7,3.8-9.2,3.8s-6.7-1.4-9.2-3.8c-2.5-2.5-3.8-5.7-3.8-9.2s1.4-6.7,3.8-9.2c2.5-2.5,5.7-3.8,9.2-3.8m0-2c-3.8,0-7.7,1.5-10.6,4.4-5.9,5.9-5.9,15.4,0,21.2,2.9,2.9,6.8,4.4,10.6,4.4s7.7-1.5,10.6-4.4c5.9-5.9,5.9-15.4,0-21.2-2.9-2.9-6.8-4.4-10.6-4.4h0Z"/><circle class="d" cx="415" cy="95" r="15"/><line class="f" x1="355" y1="278.7" x2="355" y2="325"/><path class="e" d="m355,252c7.2,0,13,5.8,13,13s-5.8,13-13,13-13-5.8-13-13,5.8-13,13-13m0-2c-8.3,0-15,6.7-15,15s6.7,15,15,15,15-6.7,15-15-6.7-15-15-15h0Z"/><line class="f" x1="322.3" y1="292.3" x2="355" y2="325"/><path class="e" d="m312.6,269.6c3.5,0,6.7,1.4,9.2,3.8,2.5,2.5,3.8,5.7,3.8,9.2s-1.4,6.7-3.8,9.2c-2.5,2.5-5.7,3.8-9.2,3.8s-6.7-1.4-9.2-3.8c-5.1-5.1-5.1-13.3,0-18.4,2.5-2.5,5.7-3.8,9.2-3.8m0-2c-3.8,0-7.7,1.5-10.6,4.4-5.9,5.9-5.9,15.4,0,21.2,2.9,2.9,6.8,4.4,10.6,4.4s7.7-1.5,10.6-4.4c5.9-5.9,5.9-15.4,0-21.2-2.9-2.9-6.8-4.4-10.6-4.4h0Z"/><line class="f" x1="308.7" y1="325" x2="355" y2="325"/><path class="e" d="m295,312c7.2,0,13,5.8,13,13s-5.8,13-13,13-13-5.8-13-13,5.8-13,13-13m0-2c-8.3,0-15,6.7-15,15s6.7,15,15,15,15-6.7,15-15-6.7-15-15-15h0Z"/><line class="f" x1="322.3" y1="357.7" x2="355" y2="325"/><path class="e" d="m312.6,354.4c3.5,0,6.7,1.4,9.2,3.8,2.5,2.5,3.8,5.7,3.8,9.2s-1.4,6.7-3.8,9.2c-2.5,2.5-5.7,3.8-9.2,3.8s-6.7-1.4-9.2-3.8c-5.1-5.1-5.1-13.3,0-18.4,2.5-2.5,5.7-3.8,9.2-3.8m0-2c-3.8,0-7.7,1.5-10.6,4.4-5.9,5.9-5.9,15.4,0,21.2,2.9,2.9,6.8,4.4,10.6,4.4s7.7-1.5,10.6-4.4c5.9-5.9,5.9-15.4,0-21.2-2.9-2.9-6.8-4.4-10.6-4.4h0Z"/><line class="f" x1="355" y1="371.3" x2="355" y2="325"/><path class="e" d="m355,372c7.2,0,13,5.8,13,13s-5.8,13-13,13-13-5.8-13-13,5.8-13,13-13m0-2c-8.3,0-15,6.7-15,15s6.7,15,15,15,15-6.7,15-15-6.7-15-15-15h0Z"/><line class="g" x1="411.3" y1="325" x2="365" y2="325"/><path class="c" d="m425,312c7.2,0,13,5.8,13,13s-5.8,13-13,13-13-5.8-13-13,5.8-13,13-13m0-2c-8.3,0-15,6.7-15,15s6.7,15,15,15,15-6.7,15-15-6.7-15-15-15h0Z"/><circle class="c" cx="425" cy="275" r="5"/><line class="g" x1="405.6" y1="278.2" x2="419.6" y2="312.1"/><circle class="c" cx="405.9" cy="278.8" r="5"/><line class="g" x1="389.2" y1="289.2" x2="415.1" y2="315.1"/><circle class="c" cx="389.6" cy="289.6" r="5"/><line class="g" x1="378.2" y1="305.6" x2="412.1" y2="319.6"/><circle class="c" cx="378.8" cy="305.9" r="5"/><line class="g" x1="378.2" y1="344.4" x2="412.1" y2="330.4"/><circle class="c" cx="378.8" cy="344.1" r="5"/><line class="g" x1="389.2" y1="360.8" x2="415.1" y2="334.9"/><circle class="c" cx="389.6" cy="360.4" r="5"/><line class="g" x1="405.6" y1="371.8" x2="419.6" y2="337.9"/><circle class="c" cx="405.9" cy="371.2" r="5"/><line class="g" x1="425" y1="375.7" x2="425" y2="339"/><circle class="c" cx="425" cy="375" r="5"/><line class="g" x1="444.4" y1="371.8" x2="430.4" y2="337.9"/><circle class="c" cx="444.1" cy="371.2" r="5"/><line class="g" x1="460.8" y1="360.8" x2="434.9" y2="334.9"/><circle class="c" cx="460.4" cy="360.4" r="5"/><line class="g" x1="471.8" y1="344.4" x2="437.9" y2="330.4"/><circle class="c" cx="471.2" cy="344.1" r="5"/><line class="g" x1="475.7" y1="325" x2="439" y2="325"/><circle class="c" cx="475" cy="325" r="5"/><line class="g" x1="471.8" y1="305.6" x2="437.9" y2="319.6"/><circle class="c" cx="471.2" cy="305.9" r="5"/><line class="g" x1="460.8" y1="289.2" x2="434.9" y2="315.1"/><circle class="c" cx="460.4" cy="289.6" r="5"/><line class="g" x1="444.4" y1="278.2" x2="430.4" y2="312.1"/><circle class="c" cx="444.1" cy="278.8" r="5"/><circle class="d" cx="355" cy="325" r="15"/><circle class="d" cx="145" cy="375" r="15"/><g><path class="c" d="m94.8,99.5l-3.3-5.3h2l2.9,4.9-1.7.4Zm0,3.8v-4.4h1.8v4.4h-1.8Zm1.7-3.8l-1.7-.4,2.9-4.9h2l-3.3,5.3Z"/><path class="c" d="m102.6,103.4c-.7,0-1.3-.1-1.8-.4-.5-.3-.9-.7-1.2-1.2-.3-.5-.4-1.1-.4-1.8s.1-1.3.4-1.8c.3-.5.7-.9,1.2-1.2.5-.3,1.1-.4,1.8-.4s1.3.1,1.8.4c.5.3.9.7,1.2,1.2.3.5.4,1.1.4,1.8s-.1,1.3-.4,1.8c-.3.5-.7.9-1.2,1.2-.5.3-1.1.4-1.7.4Zm0-1.6c.3,0,.6,0,.8-.2.2-.2.4-.4.6-.6s.2-.6.2-.9,0-.7-.2-.9-.3-.5-.6-.6c-.2-.2-.5-.2-.8-.2s-.6,0-.9.2c-.2.2-.4.4-.6.6s-.2.6-.2.9,0,.7.2.9.3.5.6.6c.3.2.5.2.9.2Z"/><path class="c" d="m106.9,100.5v-3.7h1.7v3.3l-1.7.4Zm1.7-.4c0,.4,0,.8.1,1s.2.4.4.5c.2.1.4.2.6.2.5,0,.8-.1,1-.4.2-.3.4-.7.4-1.2h.6c0,.7-.1,1.3-.3,1.8-.2.5-.5.8-.9,1.1-.4.3-.8.4-1.3.4-.8,0-1.4-.2-1.8-.7-.4-.5-.6-1.2-.6-2.2l1.7-.4Zm2.7,3.2v-1.2c-.1,0-.1-5.3-.1-5.3h1.7v6.5h-1.6Z"/><path class="c" d="m114.4,103.3v-6.5h1.7v6.5h-1.7Zm1.2-3.4c0-.7.1-1.3.4-1.7.3-.5.6-.8,1.1-1,.4-.2.9-.3,1.3-.3v1.7c-.4,0-.8,0-1.1.1-.3,0-.6.3-.9.5-.2.2-.3.5-.3.8h-.5Z"/><path class="c" d="m124.9,103.4c-.4,0-.8,0-1.2-.2-.4-.1-.7-.3-1-.5-.3-.2-.5-.5-.7-.9l1.5-.7c.1.2.3.4.5.5.2.2.5.2.8.2s.5,0,.7-.1c.2,0,.2-.2.2-.4s0-.3-.2-.3c-.1,0-.3-.1-.5-.2l-.6-.2c-.6-.2-1.1-.4-1.5-.8-.4-.4-.5-.8-.5-1.2,0-.7.2-1.2.6-1.5.4-.4,1-.5,1.8-.5s.8,0,1.1.2c.4.1.7.3.9.5.3.2.4.5.5.8l-1.4.6c0-.2-.2-.3-.4-.4-.2-.1-.5-.2-.7-.2s-.4,0-.5.1c-.1,0-.2.2-.2.4s0,.2.2.3c.1,0,.3.1.5.2l.8.2c.4.1.8.3,1,.5.3.2.4.5.6.8s.2.6.2.8c0,.4-.1.7-.3,1-.2.3-.5.5-.9.7-.4.2-.8.2-1.3.2Z"/><path class="c" d="m128,98.2v-1.5h4.4v1.5h-4.4Zm3.2,5.2c-.7,0-1.3-.2-1.6-.5-.4-.4-.6-.9-.6-1.5v-6.6h1.7v6.3c0,.3,0,.5.2.6s.3.2.5.2.2,0,.3,0c.1,0,.2,0,.3-.2l.6,1.3c-.2.2-.4.3-.7.4s-.5.1-.8.1Z"/><path class="c" d="m136.7,103.4c-.7,0-1.3-.1-1.8-.4-.5-.3-.9-.7-1.2-1.2-.3-.5-.4-1.1-.4-1.8s.1-1.3.4-1.8c.3-.5.7-.9,1.2-1.2.5-.3,1.1-.4,1.8-.4s1.3.1,1.8.4c.5.3.9.7,1.2,1.2.3.5.4,1.1.4,1.8s-.1,1.3-.4,1.8c-.3.5-.7.9-1.2,1.2-.5.3-1.1.4-1.7.4Zm0-1.6c.3,0,.6,0,.8-.2.2-.2.4-.4.6-.6.1-.3.2-.6.2-.9s0-.7-.2-.9c-.1-.3-.3-.5-.6-.6-.2-.2-.5-.2-.8-.2s-.6,0-.9.2c-.2.2-.4.4-.6.6s-.2.6-.2.9,0,.7.2.9.3.5.6.6c.3.2.5.2.9.2Z"/><path class="c" d="m141.2,103.3v-6.5h1.7v6.5h-1.7Zm1.2-3.4c0-.7.1-1.3.4-1.7.3-.5.6-.8,1.1-1,.4-.2.9-.3,1.3-.3v1.7c-.4,0-.8,0-1.1.1-.3,0-.6.3-.9.5-.2.2-.3.5-.3.8h-.5Z"/><path class="c" d="m148.4,103.3l-3-6.5h1.9l2.2,5.3.6,1.2h-1.6Zm-1,2.8c-.2,0-.5,0-.8-.1-.3,0-.5-.2-.7-.3l.6-1.4c.1,0,.3.1.4.2.1,0,.2,0,.3,0,.2,0,.3,0,.5-.1s.3-.2.3-.4l.8-1.8,2.1-5.3h1.9l-3,7.1c-.2.4-.4.8-.6,1.2s-.4.6-.7.8c-.3.2-.7.3-1.1.3Z"/><path class="c" d="m94.2,123.4c-.9,0-1.6-.2-2.3-.6-.7-.4-1.2-1-1.6-1.7-.4-.7-.6-1.5-.6-2.4s.2-1.7.6-2.4c.4-.7.9-1.3,1.6-1.7.7-.4,1.4-.6,2.3-.6s1.1,0,1.6.3c.5.2,1,.5,1.4.8.4.4.7.8.9,1.2l-.9.5c-.2-.4-.4-.7-.7-.9-.3-.3-.6-.5-1-.6-.4-.2-.8-.2-1.2-.2-.6,0-1.2.2-1.7.5-.5.3-.9.8-1.2,1.3-.3.6-.4,1.2-.4,1.9s.1,1.4.4,1.9c.3.6.7,1,1.2,1.3.5.3,1.1.5,1.7.5s.8,0,1.2-.3c.4-.2.7-.4,1-.7.3-.3.5-.6.7-1l1,.5c-.2.5-.5.9-.9,1.3s-.8.7-1.4.9c-.5.2-1,.3-1.6.3Z"/><path class="c" d="m102.3,123.4c-.6,0-1.2-.1-1.7-.4-.5-.3-.9-.7-1.2-1.2-.3-.5-.4-1.1-.4-1.8s.1-1.3.4-1.8c.3-.5.7-.9,1.1-1.2.5-.3,1.1-.4,1.7-.4s1.2.1,1.7.4c.5.3.9.7,1.1,1.2.3.5.4,1.1.4,1.8s-.1,1.3-.4,1.8-.7.9-1.1,1.2c-.5.3-1,.4-1.7.4Zm0-1c.4,0,.8-.1,1.1-.3.3-.2.6-.5.8-.9.2-.4.3-.8.3-1.3s0-.9-.3-1.3c-.2-.4-.4-.7-.8-.9-.3-.2-.7-.3-1.1-.3s-.8.1-1.1.3c-.3.2-.6.5-.8.9-.2.4-.3.8-.3,1.3s0,.9.3,1.3c.2.4.4.7.8.9s.7.3,1.1.3Z"/><path class="c" d="m107,123.3v-6.5h1v1.2c0,0,0,5.3,0,5.3h-1Zm4.6-3.3c0-.6,0-1.1-.2-1.5s-.4-.6-.6-.7c-.3-.1-.6-.2-.9-.2-.6,0-1,.2-1.3.6-.3.4-.5,1-.5,1.7h-.5c0-.7,0-1.3.3-1.8.2-.5.5-.9.9-1.1.4-.3.8-.4,1.4-.4.8,0,1.4.2,1.9.7.5.5.7,1.2.7,2.2l-1,.4Zm0,3.3v-3.3l1-.4v3.7h-1Z"/><path class="c" d="m117.1,123.4c-.6,0-1.2-.1-1.7-.4-.5-.3-.9-.7-1.2-1.2s-.4-1.1-.4-1.8.1-1.3.4-1.8c.3-.5.7-.9,1.2-1.2.5-.3,1.1-.4,1.7-.4s1.2.1,1.7.4.9.7,1.1,1.2l-.9.4c-.2-.3-.4-.6-.8-.8-.3-.2-.7-.3-1.1-.3s-.8.1-1.1.3c-.3.2-.6.5-.8.9-.2.4-.3.8-.3,1.3s0,.9.3,1.3c.2.4.4.7.8.9.3.2.7.3,1.1.3s.8-.1,1.1-.3c.3-.2.6-.5.8-.9l.9.4c-.3.6-.6,1-1.1,1.3s-1.1.5-1.7.5Z"/><path class="c" d="m124.1,123.4c-.6,0-1.2-.1-1.7-.4-.5-.3-.9-.7-1.1-1.2-.3-.5-.4-1.1-.4-1.8s.1-1.3.4-1.8c.3-.5.7-.9,1.1-1.2.5-.3,1-.4,1.7-.4s1.1.1,1.6.4.8.7,1,1.3c.2.5.4,1.2.4,1.9h-1c0-.6,0-1-.2-1.4-.1-.4-.4-.7-.7-.9-.3-.2-.6-.3-1.1-.3s-.8.1-1.1.3-.6.5-.7.9c-.2.4-.3.8-.3,1.3s0,.9.3,1.3c.2.4.5.6.8.8s.7.3,1.1.3.8-.1,1.1-.3c.3-.2.6-.5.7-.8l.9.5c-.2.3-.4.6-.7.9-.3.3-.6.4-1,.6-.4.1-.8.2-1.2.2Zm-2.5-3.2v-.9h4.8v.9h-4.8Z"/><path class="c" d="m128.4,125.9v-9.1h1v1.2c0,0,0,7.9,0,7.9h-1Zm3.2-2.4c-.5,0-1-.1-1.4-.4-.4-.3-.7-.7-1-1.2s-.3-1.1-.3-1.8.1-1.3.3-1.8c.2-.5.5-.9,1-1.2.4-.3.9-.4,1.4-.4s1.1.1,1.5.4c.4.3.8.7,1,1.2.2.5.4,1.1.4,1.8s-.1,1.3-.4,1.8c-.2.5-.6.9-1,1.2-.4.3-1,.4-1.5.4Zm-.2-.9c.4,0,.8-.1,1.1-.3s.6-.5.8-.9c.2-.4.3-.8.3-1.3s0-.9-.3-1.3-.4-.7-.7-.9-.7-.3-1.1-.3-.7.1-1,.3c-.3.2-.5.5-.7.9-.2.4-.3.8-.3,1.3s0,.9.3,1.3c.2.4.4.7.7.9.3.2.6.3,1,.3Z"/><path class="c" d="m135.4,117.7v-.9h4.1v.9h-4.1Zm3.1,5.7c-.6,0-1.1-.2-1.5-.5-.3-.3-.5-.8-.5-1.4v-6.8h1v6.7c0,.3,0,.6.3.8s.4.3.7.3.2,0,.3,0c0,0,.2-.1.4-.2l.4.8c-.2.1-.4.2-.6.3-.2,0-.4,0-.6,0Z"/><path class="c" d="m147,123.4c-.6,0-1.2-.1-1.7-.4-.5-.3-.9-.7-1.2-1.2s-.4-1.1-.4-1.8.1-1.3.4-1.8c.3-.5.7-.9,1.1-1.2.5-.3,1.1-.4,1.7-.4s1.2.1,1.7.4c.5.3.9.7,1.1,1.2.3.5.4,1.1.4,1.8s-.1,1.3-.4,1.8c-.3.5-.7.9-1.1,1.2-.5.3-1,.4-1.7.4Zm0-1c.4,0,.8-.1,1.1-.3.3-.2.6-.5.8-.9s.3-.8.3-1.3,0-.9-.3-1.3c-.2-.4-.4-.7-.8-.9s-.7-.3-1.1-.3-.8.1-1.1.3c-.3.2-.6.5-.8.9-.2.4-.3.8-.3,1.3s0,.9.3,1.3.4.7.8.9c.3.2.7.3,1.1.3Z"/><path class="c" d="m151.7,123.3v-6.5h1v6.5h-1Zm.6-3.5c0-.7.1-1.3.4-1.7.3-.4.6-.8,1-1s.9-.3,1.3-.3v1c-.4,0-.7,0-1.1.2-.4.1-.6.3-.9.6-.2.3-.3.7-.3,1.2h-.5Z"/><path class="c" d="m74.5,141.4c-.6,0-1.2-.1-1.7-.4-.5-.3-.9-.7-1.2-1.2-.3-.5-.4-1.1-.4-1.8s.1-1.3.4-1.8c.3-.5.7-.9,1.2-1.2.5-.3,1.1-.4,1.7-.4s1.2.1,1.7.4.9.7,1.1,1.2l-.9.4c-.2-.3-.4-.6-.8-.8-.3-.2-.7-.3-1.1-.3s-.8.1-1.1.3-.6.5-.8.9c-.2.4-.3.8-.3,1.3s0,.9.3,1.3c.2.4.4.7.8.9s.7.3,1.1.3.8-.1,1.1-.3.6-.5.8-.9l.9.4c-.3.6-.6,1-1.1,1.3s-1.1.5-1.7.5Z"/><path class="c" d="m81.5,141.4c-.6,0-1.2-.1-1.7-.4-.5-.3-.9-.7-1.2-1.2-.3-.5-.4-1.1-.4-1.8s.1-1.3.4-1.8c.3-.5.7-.9,1.1-1.2.5-.3,1.1-.4,1.7-.4s1.2.1,1.7.4c.5.3.9.7,1.1,1.2.3.5.4,1.1.4,1.8s-.1,1.3-.4,1.8-.7.9-1.1,1.2c-.5.3-1,.4-1.7.4Zm0-1c.4,0,.8-.1,1.1-.3.3-.2.6-.5.8-.9.2-.4.3-.8.3-1.3s0-.9-.3-1.3c-.2-.4-.4-.7-.8-.9-.3-.2-.7-.3-1.1-.3s-.8.1-1.1.3c-.3.2-.6.5-.8.9-.2.4-.3.8-.3,1.3s0,.9.3,1.3c.2.4.4.7.8.9s.7.3,1.1.3Z"/><path class="c" d="m86.2,141.3v-6.5h1v1.2c0,0,0,5.3,0,5.3h-1Zm4.6-3.3c0-.6,0-1.1-.2-1.5s-.4-.6-.6-.7c-.3-.1-.6-.2-.9-.2-.6,0-1,.2-1.3.6-.3.4-.5,1-.5,1.7h-.5c0-.7,0-1.3.3-1.8.2-.5.5-.9.9-1.1.4-.3.8-.4,1.4-.4.8,0,1.4.2,1.9.7.5.5.7,1.2.7,2.2l-1,.4Zm0,3.3v-3.3l1-.4v3.7h-1Zm4.6-3.3c0-.6,0-1.1-.2-1.5s-.4-.6-.6-.7c-.3-.1-.6-.2-.9-.2-.6,0-1,.2-1.3.6-.3.4-.5,1-.5,1.7h-.5c0-.7,0-1.3.3-1.8.2-.5.5-.9.9-1.1.4-.3.8-.4,1.4-.4.8,0,1.4.2,1.9.7.5.5.7,1.2.7,2.2l-1,.4Zm0,3.3v-3.3l1-.4v3.7h-1Z"/><path class="c" d="m98.1,143.9v-9.1h1v1.2c0,0,0,7.9,0,7.9h-1Zm3.2-2.4c-.5,0-1-.1-1.4-.4-.4-.3-.7-.7-1-1.2-.2-.5-.3-1.1-.3-1.8s.1-1.3.3-1.8c.2-.5.5-.9,1-1.2.4-.3.9-.4,1.4-.4s1.1.1,1.5.4c.4.3.8.7,1,1.2.2.5.4,1.1.4,1.8s-.1,1.3-.4,1.8c-.2.5-.6.9-1,1.2-.4.3-1,.4-1.5.4Zm-.2-.9c.4,0,.8-.1,1.1-.3s.6-.5.8-.9c.2-.4.3-.8.3-1.3s0-.9-.3-1.3c-.2-.4-.4-.7-.7-.9s-.7-.3-1.1-.3-.7.1-1,.3-.5.5-.7.9c-.2.4-.3.8-.3,1.3s0,.9.3,1.3c.2.4.4.7.7.9.3.2.6.3,1,.3Z"/><path class="c" d="m105.7,141.3v-9.1h1v9.1h-1Z"/><path class="c" d="m111.4,141.4c-.6,0-1.2-.1-1.7-.4-.5-.3-.9-.7-1.1-1.2s-.4-1.1-.4-1.8.1-1.3.4-1.8c.3-.5.6-.9,1.1-1.2.5-.3,1-.4,1.7-.4s1.1.1,1.6.4c.4.3.8.7,1,1.3.2.5.4,1.2.4,1.9h-1c0-.6,0-1-.2-1.4-.1-.4-.4-.7-.7-.9-.3-.2-.6-.3-1.1-.3s-.8.1-1.1.3c-.3.2-.6.5-.7.9s-.3.8-.3,1.3,0,.9.3,1.3c.2.4.5.6.8.8s.7.3,1.1.3.8-.1,1.1-.3.6-.5.7-.8l.9.5c-.2.3-.4.6-.7.9-.3.3-.6.4-1,.6-.4.1-.8.2-1.2.2Zm-2.5-3.2v-.9h4.8v.9h-4.8Z"/><path class="c" d="m115,135.7v-.9h4.1v.9h-4.1Zm3.1,5.7c-.6,0-1.1-.2-1.5-.5s-.5-.8-.5-1.4v-6.8h1v6.7c0,.3,0,.6.3.8s.4.3.7.3.2,0,.3,0c0,0,.2-.1.4-.2l.4.8c-.2.1-.4.2-.6.3-.2,0-.4,0-.6,0Z"/><path class="c" d="m123.4,141.4c-.6,0-1.2-.1-1.7-.4-.5-.3-.9-.7-1.1-1.2s-.4-1.1-.4-1.8.1-1.3.4-1.8c.3-.5.6-.9,1.1-1.2.5-.3,1-.4,1.7-.4s1.1.1,1.6.4c.4.3.8.7,1,1.3.2.5.4,1.2.4,1.9h-1c0-.6,0-1-.2-1.4-.1-.4-.4-.7-.7-.9-.3-.2-.6-.3-1.1-.3s-.8.1-1.1.3c-.3.2-.6.5-.7.9s-.3.8-.3,1.3,0,.9.3,1.3c.2.4.5.6.8.8s.7.3,1.1.3.8-.1,1.1-.3.6-.5.7-.8l.9.5c-.2.3-.4.6-.7.9-.3.3-.6.4-1,.6-.4.1-.8.2-1.2.2Zm-2.5-3.2v-.9h4.8v.9h-4.8Z"/><path class="c" d="m130.2,141.4c-.6,0-1.1-.1-1.5-.4-.4-.3-.8-.7-1-1.2s-.4-1.1-.4-1.8.1-1.3.4-1.8c.2-.5.6-.9,1-1.2.4-.3,1-.4,1.5-.4s1,.1,1.4.4c.4.3.7.7,1,1.2.2.5.3,1.1.3,1.8s-.1,1.3-.3,1.8c-.2.5-.5.9-1,1.2-.4.3-.9.4-1.4.4Zm.2-.9c.4,0,.7-.1,1-.3s.5-.5.7-.9c.2-.4.3-.8.3-1.3s0-.9-.3-1.3c-.2-.4-.4-.7-.7-.9s-.6-.3-1-.3-.8.1-1.1.3-.6.5-.7.9c-.2.4-.3.8-.3,1.3s0,.9.3,1.3c.2.4.4.7.8.9s.7.3,1.1.3Zm2,.8v-1.2c0,0,0-7.9,0-7.9h1v9.1h-1Z"/><path class="c" d="m138.5,141.3v-6.5h1v1.2c0,0,0,5.3,0,5.3h-1Zm4.6-3.3c0-.6,0-1.1-.2-1.5s-.4-.6-.6-.7c-.3-.1-.6-.2-.9-.2-.6,0-1,.2-1.3.6-.3.4-.5,1-.5,1.7h-.5c0-.7,0-1.3.3-1.8.2-.5.5-.9.9-1.1.4-.3.8-.4,1.4-.4.8,0,1.4.2,1.9.7.5.5.7,1.2.7,2.2l-1,.4Zm0,3.3v-3.3l1-.4v3.7h-1Zm4.6-3.3c0-.6,0-1.1-.2-1.5-.2-.3-.4-.6-.6-.7-.3-.1-.6-.2-.9-.2-.6,0-1,.2-1.3.6-.3.4-.5,1-.5,1.7h-.5c0-.7,0-1.3.3-1.8.2-.5.5-.9.9-1.1.4-.3.8-.4,1.4-.4.8,0,1.4.2,1.9.7.5.5.7,1.2.7,2.2l-1,.4Zm0,3.3v-3.3l1-.4v3.7h-1Z"/><path class="c" d="m153.2,141.4c-.6,0-1.2-.1-1.7-.4-.5-.3-.9-.7-1.2-1.2-.3-.5-.4-1.1-.4-1.8s.1-1.3.4-1.8c.3-.5.7-.9,1.1-1.2.5-.3,1.1-.4,1.7-.4s1.2.1,1.7.4c.5.3.9.7,1.1,1.2.3.5.4,1.1.4,1.8s-.1,1.3-.4,1.8c-.3.5-.7.9-1.1,1.2-.5.3-1,.4-1.7.4Zm0-1c.4,0,.8-.1,1.1-.3s.6-.5.8-.9.3-.8.3-1.3,0-.9-.3-1.3c-.2-.4-.4-.7-.8-.9s-.7-.3-1.1-.3-.8.1-1.1.3-.6.5-.8.9c-.2.4-.3.8-.3,1.3s0,.9.3,1.3c.2.4.4.7.8.9s.7.3,1.1.3Z"/><path class="c" d="m159.6,141.3l-2.7-6.5h1.1l2.7,6.5h-1Zm0,0l2.7-6.5h1.1l-2.7,6.5h-1Z"/><path class="c" d="m165,133.3c-.2,0-.3,0-.5-.2-.1-.1-.2-.3-.2-.5s0-.3.2-.5c.1-.1.3-.2.5-.2s.3,0,.5.2c.1.1.2.3.2.5s0,.3-.2.5-.3.2-.5.2Zm-.5,8v-6.5h1.1v6.5h-1.1Z"/><path class="c" d="m170.3,141.4c-.6,0-1.2-.1-1.7-.4-.5-.3-.9-.7-1.1-1.2-.3-.5-.4-1.1-.4-1.8s.1-1.3.4-1.8c.3-.5.6-.9,1.1-1.2.5-.3,1-.4,1.7-.4s1.1.1,1.6.4.8.7,1,1.3c.2.5.4,1.2.4,1.9h-1c0-.6,0-1-.2-1.4-.1-.4-.4-.7-.7-.9-.3-.2-.6-.3-1.1-.3s-.8.1-1.1.3c-.3.2-.6.5-.7.9-.2.4-.3.8-.3,1.3s0,.9.3,1.3c.2.4.5.6.8.8s.7.3,1.1.3.8-.1,1.1-.3c.3-.2.6-.5.7-.8l.9.5c-.2.3-.4.6-.7.9-.3.3-.6.4-1,.6-.4.1-.8.2-1.2.2Zm-2.5-3.2v-.9h4.8v.9h-4.8Z"/></g><g><path class="c" d="m268.2,143.4v-9.1h1.8v9.1h-1.8Zm1.4-7.5v-1.6h4.4v1.6h-4.4Zm0,3.8v-1.6h3.7v1.6h-3.7Z"/><path class="c" d="m276.1,135.8c-.3,0-.5,0-.7-.3-.2-.2-.3-.4-.3-.7s0-.5.3-.7c.2-.2.4-.3.7-.3s.5,0,.7.3c.2.2.3.4.3.7s0,.5-.3.7c-.2.2-.4.3-.7.3Zm-.9,7.6v-6.5h1.7v6.5h-1.7Z"/><path class="c" d="m278.5,143.4v-6.5h1.6v1.2c.1,0,.1,5.3.1,5.3h-1.7Zm4.3-3.3c0-.4,0-.8-.1-1s-.2-.4-.4-.5-.4-.2-.6-.2c-.4,0-.8.1-1,.4s-.4.7-.4,1.2h-.6c0-.7.1-1.3.3-1.8.2-.5.5-.8.9-1.1.4-.3.8-.4,1.3-.4.8,0,1.4.2,1.8.7.4.5.6,1.2.6,2.2l-1.7.4Zm0,3.3v-3.3l1.7-.4v3.7h-1.7Z"/><path class="c" d="m288.5,143.6c-.6,0-1.1-.1-1.6-.4-.4-.3-.8-.7-1-1.2-.2-.5-.4-1.1-.4-1.8s.1-1.3.4-1.8c.2-.5.6-.9,1-1.2.4-.3,1-.4,1.6-.4s1,.1,1.4.4c.4.3.7.7.9,1.2.2.5.3,1.1.3,1.8s0,1.3-.3,1.8c-.2.5-.5.9-.9,1.2-.4.3-.8.4-1.4.4Zm.4-1.6c.3,0,.6,0,.8-.2.2-.2.4-.4.5-.6s.2-.6.2-.9,0-.7-.2-.9c-.1-.3-.3-.5-.5-.6-.2-.2-.5-.2-.8-.2s-.6,0-.8.2c-.2.2-.4.4-.6.6-.1.3-.2.6-.2.9s0,.7.2.9.3.5.6.6c.2.2.5.2.8.2Zm1.6,1.4v-1.2c0,0,0-7.9,0-7.9h1.7v9.1h-1.6Z"/><path class="c" d="m299.9,143.6c-.7,0-1.3-.1-1.8-.4-.5-.3-.9-.7-1.2-1.2s-.4-1.1-.4-1.8.1-1.3.4-1.8c.3-.5.7-.9,1.2-1.2.5-.3,1.1-.4,1.8-.4s1.2.2,1.8.5c.5.3.9.8,1.2,1.4l-1.6.6c-.1-.3-.3-.5-.6-.6-.3-.2-.5-.2-.9-.2s-.6,0-.8.2c-.2.2-.4.4-.6.6s-.2.6-.2.9,0,.7.2.9c.1.3.3.5.6.6.3.2.5.2.9.2s.6,0,.9-.2c.3-.2.4-.4.6-.6l1.6.6c-.3.6-.6,1.1-1.2,1.4-.5.3-1.1.5-1.8.5Z"/><path class="c" d="m306.9,143.6c-.7,0-1.3-.1-1.8-.4-.5-.3-.9-.7-1.2-1.2-.3-.5-.4-1.1-.4-1.8s.1-1.3.4-1.8c.3-.5.7-.9,1.2-1.2.5-.3,1.1-.4,1.8-.4s1.3.1,1.8.4c.5.3.9.7,1.2,1.2.3.5.4,1.1.4,1.8s-.1,1.3-.4,1.8-.7.9-1.2,1.2c-.5.3-1.1.4-1.7.4Zm0-1.6c.3,0,.6,0,.8-.2.2-.2.4-.4.6-.6s.2-.6.2-.9,0-.7-.2-.9-.3-.5-.6-.6c-.2-.2-.5-.2-.8-.2s-.6,0-.9.2c-.2.2-.4.4-.6.6s-.2.6-.2.9,0,.7.2.9.3.5.6.6c.3.2.5.2.9.2Z"/><path class="c" d="m311.4,143.4v-6.5h1.6v1.2c.1,0,.1,5.3.1,5.3h-1.7Zm4.3-3.3c0-.4,0-.8-.1-1s-.2-.4-.4-.5c-.2-.1-.4-.2-.6-.2-.4,0-.8.1-1,.4s-.4.7-.4,1.2h-.6c0-.7.1-1.3.3-1.8.2-.5.5-.8.9-1.1.4-.3.8-.4,1.3-.4.8,0,1.4.2,1.8.7.4.5.6,1.2.6,2.2l-1.7.4Zm0,3.3v-3.3l1.7-.4v3.7h-1.7Zm4.3-3.3c0-.4,0-.8-.2-1-.1-.2-.2-.4-.4-.5-.2-.1-.4-.2-.6-.2-.4,0-.8.1-1,.4-.2.3-.4.7-.4,1.2h-.6c0-.7.1-1.3.3-1.8.2-.5.5-.8.9-1.1.4-.3.8-.4,1.3-.4.8,0,1.4.2,1.8.7s.6,1.2.6,2.2l-1.7.4Zm0,3.3v-3.3l1.7-.4v3.7h-1.7Z"/><path class="c" d="m323.1,146v-9.1h1.6v1.2c.1,0,.1,7.9.1,7.9h-1.7Zm3.7-2.4c-.5,0-1-.1-1.4-.4-.4-.3-.7-.7-.9-1.2s-.3-1.1-.3-1.8,0-1.3.3-1.8.5-.9.9-1.2c.4-.3.8-.4,1.4-.4s1.1.1,1.6.4c.4.3.8.7,1,1.2.2.5.4,1.1.4,1.8s-.1,1.3-.4,1.8c-.2.5-.6.9-1,1.2-.4.3-1,.4-1.6.4Zm-.4-1.6c.3,0,.6,0,.8-.2.2-.2.4-.4.6-.6s.2-.6.2-.9,0-.7-.2-.9c-.1-.3-.3-.5-.6-.6-.2-.2-.5-.2-.8-.2s-.6,0-.8.2c-.2.2-.4.4-.5.6s-.2.6-.2.9,0,.7.2.9.3.5.5.6c.2.2.5.2.8.2Z"/><path class="c" d="m333.3,143.6c-.4,0-.8,0-1.2-.2-.4-.1-.7-.3-1-.5-.3-.2-.5-.5-.6-.9l1.5-.7c.1.2.3.4.5.5.2.2.5.2.8.2s.5,0,.7-.1c.2,0,.2-.2.2-.4s0-.3-.2-.3c-.1,0-.3-.1-.5-.2l-.6-.2c-.6-.2-1.1-.4-1.5-.8-.4-.4-.5-.8-.5-1.2,0-.7.2-1.2.6-1.5.4-.4,1-.5,1.8-.5s.8,0,1.1.2c.4.1.7.3.9.5.3.2.4.5.5.8l-1.4.6c0-.2-.2-.3-.4-.4-.2-.1-.5-.2-.7-.2s-.4,0-.5.1-.2.2-.2.4,0,.2.2.3c.1,0,.3.1.5.2l.8.2c.4.1.8.3,1,.5.3.2.4.5.6.8.1.3.2.6.2.8,0,.4-.1.7-.3,1-.2.3-.5.5-.9.7s-.8.2-1.3.2Z"/><path class="c" d="m265.8,163.4l-2.8-9.1h1.1l2.8,9.1h-1.1Zm.1,0l2.7-9.1h1.1l-2.7,9.1h-1.1Zm5.3,0l-2.6-9.1h1.1l2.7,9.1h-1.1Zm0,0l2.8-9.1h1.1l-2.8,9.1h-1.1Z"/><path class="c" d="m278.6,163.6c-.6,0-1.2-.1-1.7-.4-.5-.3-.9-.7-1.1-1.2-.3-.5-.4-1.1-.4-1.8s.1-1.3.4-1.8c.3-.5.7-.9,1.1-1.2.5-.3,1-.4,1.7-.4s1.1.1,1.6.4.8.7,1,1.3c.2.5.4,1.2.4,1.9h-1c0-.6,0-1-.2-1.4-.1-.4-.4-.7-.7-.9-.3-.2-.6-.3-1.1-.3s-.8.1-1.1.3-.6.5-.7.9c-.2.4-.3.8-.3,1.3s0,.9.3,1.3c.2.4.5.6.8.8s.7.3,1.1.3.8-.1,1.1-.3c.3-.2.6-.5.7-.8l.9.5c-.2.3-.4.6-.7.9-.3.3-.6.4-1,.6-.4.1-.8.2-1.2.2Zm-2.5-3.2v-.9h4.8v.9h-4.8Z"/><path class="c" d="m288.2,163.6c-.8,0-1.4-.2-1.8-.5s-.6-.8-.6-1.5.2-1.2.7-1.5,1.1-.5,1.8-.5h1.9v.9h-1.6c-.6,0-1,0-1.3.3-.3.2-.4.5-.4.9s.1.6.4.8c.3.2.6.3,1.1.3s.7,0,1-.3c.3-.2.5-.4.6-.7.1-.3.2-.6.2-1h.6c0,.9-.2,1.6-.7,2.1s-1.1.8-1.9.8Zm2-.2v-1.1c0,0,0-2.4,0-2.4,0-.5,0-.9-.2-1.3-.1-.3-.3-.6-.5-.8s-.6-.3-.9-.3-.7,0-1,.2c-.3.1-.5.4-.7.7l-.9-.4c.2-.3.4-.6.6-.8.2-.2.5-.4.9-.5s.7-.2,1.1-.2c.6,0,1.1.1,1.5.4.4.2.7.6.9,1,.2.5.3,1,.3,1.7v3.5h-1Z"/><path class="c" d="m295,163.6c-.5,0-.9,0-1.2-.2s-.7-.3-.9-.6-.4-.5-.5-.8l.9-.4c.1.3.4.5.7.7.3.2.6.3,1,.3s.8,0,1-.2c.3-.2.4-.4.4-.7s-.1-.5-.3-.6c-.2-.2-.5-.3-.9-.4l-.6-.2c-.6-.2-1-.4-1.4-.7-.3-.3-.5-.7-.5-1.1,0-.6.2-1.1.6-1.4.4-.3,1-.5,1.8-.5s.7,0,1,.2c.3.1.6.3.8.5.2.2.4.4.5.7l-.9.4c-.1-.3-.3-.5-.6-.6-.3-.1-.6-.2-.9-.2s-.7,0-.9.3c-.2.2-.3.4-.3.7s0,.3.3.5c.2.2.5.3.8.4l.6.2c.4.1.8.3,1.1.5s.5.4.6.7c.1.3.2.5.2.8s-.1.7-.3,1-.5.5-.8.7c-.4.2-.8.2-1.2.2Z"/><path class="c" d="m301.1,163.6c-.5,0-.9,0-1.2-.2s-.7-.3-.9-.6-.4-.5-.5-.8l.9-.4c.1.3.4.5.7.7.3.2.6.3,1,.3s.8,0,1-.2c.3-.2.4-.4.4-.7s-.1-.5-.3-.6c-.2-.2-.5-.3-.9-.4l-.6-.2c-.6-.2-1-.4-1.4-.7-.3-.3-.5-.7-.5-1.1,0-.6.2-1.1.6-1.4.4-.3,1-.5,1.8-.5s.7,0,1,.2c.3.1.6.3.8.5.2.2.4.4.5.7l-.9.4c-.1-.3-.3-.5-.6-.6-.3-.1-.6-.2-.9-.2s-.7,0-.9.3c-.2.2-.3.4-.3.7s0,.3.3.5c.2.2.5.3.8.4l.6.2c.4.1.8.3,1.1.5s.5.4.6.7c.1.3.2.5.2.8s-.1.7-.3,1-.5.5-.8.7c-.4.2-.8.2-1.2.2Z"/><path class="c" d="m307.7,163.6c-.6,0-1.2-.1-1.7-.4-.5-.3-.9-.7-1.1-1.2-.3-.5-.4-1.1-.4-1.8s.1-1.3.4-1.8c.3-.5.7-.9,1.1-1.2.5-.3,1-.4,1.7-.4s1.1.1,1.6.4.8.7,1,1.3c.2.5.4,1.2.4,1.9h-1c0-.6,0-1-.2-1.4-.1-.4-.4-.7-.7-.9-.3-.2-.6-.3-1.1-.3s-.8.1-1.1.3-.6.5-.7.9c-.2.4-.3.8-.3,1.3s0,.9.3,1.3c.2.4.5.6.8.8s.7.3,1.1.3.8-.1,1.1-.3c.3-.2.6-.5.7-.8l.9.5c-.2.3-.4.6-.7.9-.3.3-.6.4-1,.6-.4.1-.8.2-1.2.2Zm-2.5-3.2v-.9h4.8v.9h-4.8Z"/><path class="c" d="m312,163.4v-6.5h1v1.2c0,0,0,5.3,0,5.3h-1Zm4.6-3.3c0-.6,0-1.1-.2-1.5s-.4-.6-.6-.7c-.3-.1-.6-.2-.9-.2-.6,0-1,.2-1.3.6-.3.4-.5,1-.5,1.7h-.5c0-.7,0-1.3.3-1.8.2-.5.5-.9.9-1.1.4-.3.8-.4,1.4-.4.8,0,1.4.2,1.9.7.5.5.7,1.2.7,2.2l-1,.4Zm0,3.3v-3.3l1-.4v3.7h-1Zm4.6-3.3c0-.6,0-1.1-.2-1.5-.2-.3-.4-.6-.6-.7-.3-.1-.6-.2-.9-.2-.6,0-1,.2-1.3.6-.3.4-.5,1-.5,1.7h-.5c0-.7,0-1.3.3-1.8.2-.5.5-.9.9-1.1.4-.3.8-.4,1.4-.4.8,0,1.4.2,1.9.7.5.5.7,1.2.7,2.2l-1,.4Zm0,3.3v-3.3l1-.4v3.7h-1Z"/><path class="c" d="m323.8,163.4v-9.1h1v9.1h-1Zm3.2.2c-.5,0-1-.1-1.4-.4-.4-.3-.7-.7-1-1.2s-.3-1.1-.3-1.8.1-1.3.3-1.8c.2-.5.5-.9,1-1.2.4-.3.9-.4,1.4-.4s1.1.1,1.5.4.8.7,1,1.2c.2.5.4,1.1.4,1.8s-.1,1.3-.4,1.8-.6.9-1,1.2-1,.4-1.5.4Zm-.2-.9c.4,0,.8-.1,1.1-.3s.6-.5.8-.9c.2-.4.3-.8.3-1.3s0-.9-.3-1.3c-.2-.4-.4-.7-.7-.9s-.7-.3-1.1-.3-.7.1-1,.3-.5.5-.7.9c-.2.4-.3.8-.3,1.3s0,.9.3,1.3c.2.4.4.7.7.9.3.2.6.3,1,.3Z"/><path class="c" d="m331.4,163.4v-9.1h1v9.1h-1Z"/><path class="c" d="m337.1,163.6c-.6,0-1.2-.1-1.7-.4-.5-.3-.9-.7-1.1-1.2-.3-.5-.4-1.1-.4-1.8s.1-1.3.4-1.8c.3-.5.7-.9,1.1-1.2.5-.3,1-.4,1.7-.4s1.1.1,1.6.4.8.7,1,1.3c.2.5.4,1.2.4,1.9h-1c0-.6,0-1-.2-1.4-.1-.4-.4-.7-.7-.9-.3-.2-.6-.3-1.1-.3s-.8.1-1.1.3-.6.5-.7.9c-.2.4-.3.8-.3,1.3s0,.9.3,1.3c.2.4.5.6.8.8s.7.3,1.1.3.8-.1,1.1-.3c.3-.2.6-.5.7-.8l.9.5c-.2.3-.4.6-.7.9-.3.3-.6.4-1,.6-.4.1-.8.2-1.2.2Zm-2.5-3.2v-.9h4.8v.9h-4.8Z"/><path class="c" d="m266.3,181.4v-6.5h1v6.5h-1Zm.6-3.5c0-.7.1-1.3.4-1.7s.6-.8,1-1c.4-.2.9-.3,1.3-.3v1c-.4,0-.7,0-1.1.2-.4.1-.6.3-.9.6-.2.3-.3.7-.3,1.2h-.5Z"/><path class="c" d="m273.5,181.6c-.6,0-1.2-.1-1.7-.4-.5-.3-.9-.7-1.1-1.2-.3-.5-.4-1.1-.4-1.8s.1-1.3.4-1.8c.3-.5.6-.9,1.1-1.2.5-.3,1-.4,1.7-.4s1.1.1,1.6.4.8.7,1,1.3c.2.5.4,1.2.4,1.9h-1c0-.6,0-1-.2-1.4-.1-.4-.4-.7-.7-.9-.3-.2-.6-.3-1.1-.3s-.8.1-1.1.3c-.3.2-.6.5-.7.9-.2.4-.3.8-.3,1.3s0,.9.3,1.3c.2.4.5.6.8.8s.7.3,1.1.3.8-.1,1.1-.3c.3-.2.6-.5.7-.8l.9.5c-.2.3-.4.6-.7.9-.3.3-.6.4-1,.6-.4.1-.8.2-1.2.2Zm-2.5-3.2v-.9h4.8v.9h-4.8Z"/><path class="c" d="m277.8,181.4v-9.1h1v9.1h-1Z"/><path class="c" d="m282.7,181.6c-.8,0-1.4-.2-1.8-.5s-.6-.8-.6-1.5.2-1.2.7-1.5,1.1-.5,1.8-.5h1.9v.9h-1.6c-.6,0-1,0-1.3.3-.3.2-.4.5-.4.9s.1.6.4.8c.3.2.6.3,1.1.3s.7,0,1-.3c.3-.2.5-.4.6-.7.1-.3.2-.6.2-1h.6c0,.9-.2,1.6-.7,2.1s-1.1.8-1.9.8Zm2-.2v-1.1c0,0,0-2.4,0-2.4,0-.5,0-.9-.2-1.3-.1-.3-.3-.6-.5-.8s-.6-.3-.9-.3-.7,0-1,.2c-.3.1-.5.4-.7.7l-.9-.4c.2-.3.4-.6.6-.8.2-.2.5-.4.9-.5s.7-.2,1.1-.2c.6,0,1.1.1,1.5.4.4.2.7.6.9,1,.2.5.3,1,.3,1.7v3.5h-1Z"/><path class="c" d="m286.6,175.8v-.9h4.1v.9h-4.1Zm3.1,5.7c-.6,0-1.1-.2-1.5-.5s-.5-.8-.5-1.4v-6.8h1v6.7c0,.3,0,.6.3.8s.4.3.7.3.2,0,.3,0c0,0,.2-.1.4-.2l.4.8c-.2.1-.4.2-.6.3-.2,0-.4,0-.6,0Z"/><path class="c" d="m295,181.6c-.6,0-1.2-.1-1.7-.4-.5-.3-.9-.7-1.1-1.2-.3-.5-.4-1.1-.4-1.8s.1-1.3.4-1.8c.3-.5.7-.9,1.1-1.2.5-.3,1-.4,1.7-.4s1.1.1,1.6.4.8.7,1,1.3c.2.5.4,1.2.4,1.9h-1c0-.6,0-1-.2-1.4-.1-.4-.4-.7-.7-.9-.3-.2-.6-.3-1.1-.3s-.8.1-1.1.3-.6.5-.7.9c-.2.4-.3.8-.3,1.3s0,.9.3,1.3c.2.4.5.6.8.8s.7.3,1.1.3.8-.1,1.1-.3c.3-.2.6-.5.7-.8l.9.5c-.2.3-.4.6-.7.9-.3.3-.6.4-1,.6-.4.1-.8.2-1.2.2Zm-2.5-3.2v-.9h4.8v.9h-4.8Z"/><path class="c" d="m301.8,181.6c-.6,0-1.1-.1-1.5-.4-.4-.3-.8-.7-1-1.2-.2-.5-.4-1.1-.4-1.8s.1-1.3.4-1.8c.2-.5.6-.9,1-1.2.4-.3,1-.4,1.5-.4s1,.1,1.4.4c.4.3.7.7,1,1.2.2.5.3,1.1.3,1.8s-.1,1.3-.3,1.8-.5.9-1,1.2c-.4.3-.9.4-1.4.4Zm.2-.9c.4,0,.7-.1,1-.3.3-.2.5-.5.7-.9.2-.4.3-.8.3-1.3s0-.9-.3-1.3-.4-.7-.7-.9c-.3-.2-.6-.3-1-.3s-.8.1-1.1.3-.6.5-.7.9c-.2.4-.3.8-.3,1.3s0,.9.3,1.3c.2.4.4.7.8.9s.7.3,1.1.3Zm2,.8v-1.2c0,0,0-7.9,0-7.9h1v9.1h-1Z"/><path class="c" d="m309.4,175.8v-.9h4.1v.9h-4.1Zm3.1,5.7c-.6,0-1.1-.2-1.5-.5s-.5-.8-.5-1.4v-6.8h1v6.7c0,.3,0,.6.3.8s.4.3.7.3.2,0,.3,0c0,0,.2-.1.4-.2l.4.8c-.2.1-.4.2-.6.3-.2,0-.4,0-.6,0Z"/><path class="c" d="m315.6,173.4c-.2,0-.3,0-.5-.2-.1-.1-.2-.3-.2-.5s0-.3.2-.5c.1-.1.3-.2.5-.2s.3,0,.5.2c.1.1.2.3.2.5s0,.3-.2.5-.3.2-.5.2Zm-.5,8v-6.5h1.1v6.5h-1.1Z"/><path class="c" d="m317.3,175.8v-.9h4.1v.9h-4.1Zm3.1,5.7c-.6,0-1.1-.2-1.5-.5s-.5-.8-.5-1.4v-6.8h1v6.7c0,.3,0,.6.3.8s.4.3.7.3.2,0,.3,0c0,0,.2-.1.4-.2l.4.8c-.2.1-.4.2-.6.3-.2,0-.4,0-.6,0Z"/><path class="c" d="m322.9,181.4v-9.1h1v9.1h-1Z"/><path class="c" d="m328.6,181.6c-.6,0-1.2-.1-1.7-.4-.5-.3-.9-.7-1.1-1.2-.3-.5-.4-1.1-.4-1.8s.1-1.3.4-1.8c.3-.5.7-.9,1.1-1.2.5-.3,1-.4,1.7-.4s1.1.1,1.6.4.8.7,1,1.3c.2.5.4,1.2.4,1.9h-1c0-.6,0-1-.2-1.4-.1-.4-.4-.7-.7-.9-.3-.2-.6-.3-1.1-.3s-.8.1-1.1.3-.6.5-.7.9c-.2.4-.3.8-.3,1.3s0,.9.3,1.3c.2.4.5.6.8.8s.7.3,1.1.3.8-.1,1.1-.3c.3-.2.6-.5.7-.8l.9.5c-.2.3-.4.6-.7.9-.3.3-.6.4-1,.6-.4.1-.8.2-1.2.2Zm-2.5-3.2v-.9h4.8v.9h-4.8Z"/><path class="c" d="m335.1,181.6c-.5,0-.9,0-1.2-.2s-.7-.3-.9-.6-.4-.5-.5-.8l.9-.4c.1.3.4.5.7.7.3.2.6.3,1,.3s.8,0,1-.2c.3-.2.4-.4.4-.7s-.1-.5-.3-.6c-.2-.2-.5-.3-.9-.4l-.6-.2c-.6-.2-1-.4-1.4-.7-.3-.3-.5-.7-.5-1.1,0-.6.2-1.1.6-1.4.4-.3,1-.5,1.8-.5s.7,0,1,.2c.3.1.6.3.8.5.2.2.4.4.5.7l-.9.4c-.1-.3-.3-.5-.6-.6-.3-.1-.6-.2-.9-.2s-.7,0-.9.3c-.2.2-.3.4-.3.7s0,.3.3.5c.2.2.5.3.8.4l.6.2c.4.1.8.3,1.1.5s.5.4.6.7c.1.3.2.5.2.8s-.1.7-.3,1-.5.5-.8.7c-.4.2-.8.2-1.2.2Z"/></g><g><path class="c" d="m416.8,403.5l3.6-9.1h1.8l-3.5,9.1h-1.9Zm1.7-2v-1.6h5.7v1.6h-5.7Zm5.5,2l-3.5-9.1h1.8l3.6,9.1h-1.9Z"/><path class="c" d="m426.7,403.5v-6.5h1.6v1.2c.1,0,.1,5.3.1,5.3h-1.7Zm4.3-3.3c0-.4,0-.8-.1-1,0-.2-.2-.4-.4-.5-.2-.1-.4-.2-.6-.2-.4,0-.8.1-1,.4s-.4.7-.4,1.2h-.6c0-.7.1-1.3.3-1.8.2-.5.5-.8.9-1.1.4-.3.8-.4,1.3-.4.8,0,1.4.2,1.8.7.4.5.6,1.2.6,2.2l-1.7.4Zm0,3.3v-3.3l1.7-.4v3.7h-1.7Z"/><path class="c" d="m436.2,403.6c-.8,0-1.4-.2-1.8-.5-.4-.3-.6-.8-.6-1.5s.2-1.2.7-1.6c.5-.4,1.1-.5,2-.5h1.7v1.3h-1.1c-.6,0-1,0-1.2.2-.2.1-.3.3-.3.6s0,.3.3.4c.2.1.4.2.7.2s.5,0,.7-.2c.2-.1.4-.3.5-.5.1-.2.2-.4.2-.7h.5c0,.9-.2,1.6-.5,2.1s-.9.7-1.7.7Zm1.8-.2v-1.3c0,0,0-2,0-2,0-.4,0-.7-.1-1,0-.3-.2-.5-.4-.6-.2-.1-.4-.2-.7-.2s-.5,0-.7.2c-.2.1-.4.3-.5.5l-1.6-.5c.1-.3.3-.5.5-.8.2-.3.5-.5.9-.7s.8-.3,1.4-.3,1.2.1,1.6.4.8.6,1,1,.3,1,.3,1.7v3.6h-1.7Z"/><path class="c" d="m441,403.5v-9.1h1.7v9.1h-1.7Z"/><path class="c" d="m446.5,403.5l-3-6.5h1.9l2.2,5.3.6,1.2h-1.6Zm-1,2.8c-.2,0-.5,0-.8-.1-.3,0-.5-.2-.7-.3l.6-1.4c.1,0,.3.1.4.2.1,0,.2,0,.3,0,.2,0,.3,0,.5-.1s.3-.2.3-.4l.8-1.8,2.1-5.3h1.9l-3,7.1c-.2.4-.4.8-.6,1.2-.2.3-.4.6-.7.8-.3.2-.7.3-1.1.3Z"/><path class="c" d="m454.1,403.6c-.4,0-.8,0-1.2-.2-.4-.1-.7-.3-1-.5s-.5-.5-.6-.9l1.5-.7c.1.2.3.4.5.5.2.2.5.2.8.2s.5,0,.7-.1c.2,0,.2-.2.2-.4s0-.3-.2-.3c-.1,0-.3-.1-.5-.2l-.6-.2c-.6-.2-1.1-.4-1.5-.8s-.5-.8-.5-1.2c0-.7.2-1.2.6-1.5.4-.4,1-.5,1.8-.5s.8,0,1.1.2c.4.1.7.3.9.5.3.2.4.5.5.8l-1.4.7c0-.2-.2-.3-.4-.4-.2-.1-.5-.2-.7-.2s-.4,0-.5.2-.2.2-.2.4,0,.2.2.3c.1,0,.3.1.5.2l.8.2c.4.1.8.3,1,.5.3.2.4.5.6.8.1.3.2.6.2.8,0,.4-.1.7-.3,1-.2.3-.5.5-.9.7s-.8.2-1.3.2Z"/><path class="c" d="m460.7,403.6c-.6,0-1.2-.1-1.7-.4-.5-.3-.9-.7-1.2-1.2-.3-.5-.4-1.1-.4-1.8s.1-1.3.4-1.8c.3-.5.7-.9,1.2-1.2.5-.3,1.1-.4,1.7-.4s1.1.2,1.6.4c.5.3.9.7,1.2,1.3s.4,1.3.4,2.1h-1.7c0-.6,0-1-.2-1.4-.1-.3-.3-.6-.5-.7-.2-.2-.5-.2-.8-.2s-.6,0-.9.2c-.2.1-.4.3-.5.6-.1.3-.2.6-.2,1.1s0,.7.2,1c.2.3.4.5.6.6.3.1.5.2.9.2s.6,0,.8-.2c.2-.1.4-.3.5-.6l1.6.6c-.2.4-.4.7-.7.9-.3.3-.6.5-1,.6-.4.1-.9.2-1.4.2Zm-2.2-3v-1.3h4.6v1.3h-4.6Z"/><path class="c" d="m470.6,403.6c-.6,0-1.1-.1-1.6-.4s-.8-.7-1-1.2c-.2-.5-.4-1.1-.4-1.8s.1-1.3.4-1.8c.2-.5.6-.9,1-1.2s1-.4,1.6-.4,1,.1,1.4.4.7.7.9,1.2c.2.5.3,1.1.3,1.8s0,1.3-.3,1.8c-.2.5-.5.9-.9,1.2s-.8.4-1.4.4Zm.4-1.6c.3,0,.6,0,.8-.2.2-.2.4-.4.5-.7s.2-.6.2-.9,0-.7-.2-.9-.3-.5-.5-.6c-.2-.2-.5-.2-.8-.2s-.6,0-.8.2c-.2.2-.4.4-.6.6s-.2.6-.2.9,0,.7.2.9.3.5.6.7c.2.2.5.2.8.2Zm1.6,1.4v-1.2c0,0,0-7.9,0-7.9h1.7v9.1h-1.6Z"/><path class="c" d="m477.9,403.6c-.8,0-1.4-.2-1.8-.5-.4-.3-.6-.8-.6-1.5s.2-1.2.7-1.6c.5-.4,1.1-.5,2-.5h1.7v1.3h-1.1c-.6,0-1,0-1.2.2-.2.1-.3.3-.3.6s0,.3.3.4c.2.1.4.2.7.2s.5,0,.7-.2c.2-.1.4-.3.5-.5.1-.2.2-.4.2-.7h.5c0,.9-.2,1.6-.5,2.1s-.9.7-1.7.7Zm1.8-.2v-1.3c0,0,0-2,0-2,0-.4,0-.7-.1-1,0-.3-.2-.5-.4-.6-.2-.1-.4-.2-.7-.2s-.5,0-.7.2c-.2.1-.4.3-.5.5l-1.6-.5c.1-.3.3-.5.5-.8.2-.3.5-.5.9-.7s.8-.3,1.4-.3,1.2.1,1.6.4.8.6,1,1,.3,1,.3,1.7v3.6h-1.7Z"/><path class="c" d="m482.2,398.4v-1.5h4.4v1.5h-4.4Zm3.2,5.2c-.7,0-1.3-.2-1.6-.5-.4-.4-.6-.9-.6-1.5v-6.6h1.7v6.3c0,.3,0,.5.2.6.1.1.3.2.5.2s.2,0,.3,0c.1,0,.2,0,.3-.2l.6,1.3c-.2.2-.4.3-.7.4s-.5.2-.8.2Z"/><path class="c" d="m489.9,403.6c-.8,0-1.4-.2-1.8-.5-.4-.3-.6-.8-.6-1.5s.2-1.2.7-1.6c.5-.4,1.1-.5,2-.5h1.7v1.3h-1.1c-.6,0-1,0-1.2.2-.2.1-.3.3-.3.6s0,.3.3.4c.2.1.4.2.7.2s.5,0,.7-.2c.2-.1.4-.3.5-.5.1-.2.2-.4.2-.7h.5c0,.9-.2,1.6-.5,2.1s-.9.7-1.7.7Zm1.8-.2v-1.3c0,0,0-2,0-2,0-.4,0-.7-.1-1,0-.3-.2-.5-.4-.6-.2-.1-.4-.2-.7-.2s-.5,0-.7.2c-.2.1-.4.3-.5.5l-1.6-.5c.1-.3.3-.5.5-.8.2-.3.5-.5.9-.7s.8-.3,1.4-.3,1.2.1,1.6.4.8.6,1,1,.3,1,.3,1.7v3.6h-1.7Z"/><path class="c" d="m390.8,423.5l-2.8-9.1h1.1l2.8,9.1h-1.1Zm.1,0l2.7-9.1h1.1l-2.7,9.1h-1.1Zm5.3,0l-2.6-9.1h1.1l2.7,9.1h-1.1Zm0,0l2.8-9.1h1.1l-2.8,9.1h-1.1Z"/><path class="c" d="m403.6,423.6c-.6,0-1.2-.1-1.7-.4-.5-.3-.9-.7-1.1-1.2-.3-.5-.4-1.1-.4-1.8s.1-1.3.4-1.8c.3-.5.6-.9,1.1-1.2.5-.3,1-.4,1.7-.4s1.1.2,1.6.4.8.7,1,1.3c.2.5.4,1.2.4,1.9h-1c0-.6,0-1-.2-1.4s-.4-.7-.7-.9c-.3-.2-.6-.3-1.1-.3s-.8.1-1.1.3c-.3.2-.6.5-.7.9-.2.4-.3.8-.3,1.3s0,.9.3,1.3c.2.4.5.6.8.8s.7.3,1.1.3.8-.1,1.1-.3c.3-.2.6-.5.7-.8l.9.5c-.2.3-.4.6-.7.9-.3.3-.6.4-1,.6-.4.1-.8.2-1.2.2Zm-2.5-3.2v-.9h4.8v.9h-4.8Z"/><path class="c" d="m414,423.6c-.6,0-1.2-.1-1.7-.4-.5-.3-.9-.7-1.2-1.2-.3-.5-.4-1.1-.4-1.8s.1-1.3.4-1.8c.3-.5.7-.9,1.2-1.2.5-.3,1.1-.4,1.7-.4s1.2.1,1.7.4c.5.3.9.7,1.1,1.2l-.9.4c-.2-.3-.4-.6-.8-.8-.3-.2-.7-.3-1.1-.3s-.8.1-1.1.3c-.3.2-.6.5-.8.9-.2.4-.3.8-.3,1.3s0,.9.3,1.3.4.7.8.9c.3.2.7.3,1.1.3s.8-.1,1.1-.3c.3-.2.6-.5.8-.9l.9.4c-.3.6-.6,1-1.1,1.3-.5.3-1.1.5-1.7.5Z"/><path class="c" d="m421,423.6c-.6,0-1.2-.1-1.7-.4-.5-.3-.9-.7-1.2-1.2-.3-.5-.4-1.1-.4-1.8s.1-1.3.4-1.8c.3-.5.7-.9,1.1-1.2.5-.3,1.1-.4,1.7-.4s1.2.1,1.7.4c.5.3.9.7,1.1,1.2.3.5.4,1.1.4,1.8s-.1,1.3-.4,1.8c-.3.5-.7.9-1.1,1.2-.5.3-1,.4-1.7.4Zm0-1c.4,0,.8-.1,1.1-.3.3-.2.6-.5.8-.9s.3-.8.3-1.3,0-.9-.3-1.3c-.2-.4-.4-.7-.8-.9-.3-.2-.7-.3-1.1-.3s-.8.1-1.1.3-.6.5-.8.9c-.2.4-.3.8-.3,1.3s0,.9.3,1.3c.2.4.4.7.8.9s.7.3,1.1.3Z"/><path class="c" d="m425.6,423.5v-9.1h1v9.1h-1Z"/><path class="c" d="m428.5,423.5v-9.1h1v9.1h-1Z"/><path class="c" d="m434.2,423.6c-.6,0-1.2-.1-1.7-.4-.5-.3-.9-.7-1.1-1.2-.3-.5-.4-1.1-.4-1.8s.1-1.3.4-1.8c.3-.5.7-.9,1.1-1.2.5-.3,1-.4,1.7-.4s1.1.2,1.6.4.8.7,1,1.3c.2.5.4,1.2.4,1.9h-1c0-.6,0-1-.2-1.4-.1-.4-.4-.7-.7-.9-.3-.2-.6-.3-1.1-.3s-.8.1-1.1.3c-.3.2-.6.5-.7.9-.2.4-.3.8-.3,1.3s0,.9.3,1.3c.2.4.5.6.8.8s.7.3,1.1.3.8-.1,1.1-.3c.3-.2.6-.5.7-.8l.9.5c-.2.3-.4.6-.7.9-.3.3-.6.4-1,.6-.4.1-.8.2-1.2.2Zm-2.5-3.2v-.9h4.8v.9h-4.8Z"/><path class="c" d="m441.4,423.6c-.6,0-1.2-.1-1.7-.4-.5-.3-.9-.7-1.2-1.2-.3-.5-.4-1.1-.4-1.8s.1-1.3.4-1.8c.3-.5.7-.9,1.2-1.2.5-.3,1.1-.4,1.7-.4s1.2.1,1.7.4c.5.3.9.7,1.1,1.2l-.9.4c-.2-.3-.4-.6-.8-.8-.3-.2-.7-.3-1.1-.3s-.8.1-1.1.3-.6.5-.8.9c-.2.4-.3.8-.3,1.3s0,.9.3,1.3c.2.4.4.7.8.9s.7.3,1.1.3.8-.1,1.1-.3c.3-.2.6-.5.8-.9l.9.4c-.3.6-.6,1-1.1,1.3-.5.3-1.1.5-1.7.5Z"/><path class="c" d="m444.8,417.9v-.9h4.1v.9h-4.1Zm3.1,5.7c-.6,0-1.1-.2-1.5-.5s-.5-.8-.5-1.4v-6.8h1v6.7c0,.3,0,.6.3.8s.4.3.7.3.2,0,.3,0c0,0,.2-.1.4-.2l.4.8c-.2.1-.4.2-.6.3-.2,0-.4,0-.6,0Z"/><path class="c" d="m453.6,423.5v-9.3h1v9.3h-1Zm4.6-3.3c0-.6,0-1.1-.2-1.5-.2-.3-.4-.6-.6-.7-.3-.1-.6-.2-.9-.2-.6,0-1,.2-1.3.6-.3.4-.5,1-.5,1.7h-.5c0-.7,0-1.3.3-1.8.2-.5.5-.9.9-1.1.4-.3.8-.4,1.4-.4.8,0,1.4.2,1.9.7s.7,1.2.7,2.2l-1,.4Zm0,3.3v-3.3l1-.4v3.7h-1Z"/><path class="c" d="m461.7,420.3c0,.6,0,1.1.2,1.5s.4.6.6.7c.3.1.6.2.9.2.6,0,1-.2,1.3-.6.3-.4.5-1,.5-1.7h.5c0,.7,0,1.3-.3,1.8s-.5.9-.9,1.1-.8.4-1.4.4c-.8,0-1.4-.2-1.9-.7-.5-.5-.7-1.2-.7-2.2l1-.4Zm-1,.4v-3.7h1v3.3l-1,.4Zm4.6,2.8v-1.2c0,0,0-5.3,0-5.3h1v6.5h-1Z"/><path class="c" d="m468.1,423.5v-6.5h1v1.2c0,0,0,5.3,0,5.3h-1Zm4.6-3.3c0-.6,0-1.1-.2-1.5s-.4-.6-.6-.7c-.3-.1-.6-.2-.9-.2-.6,0-1,.2-1.3.6-.3.4-.5,1-.5,1.7h-.5c0-.7,0-1.3.3-1.8.2-.5.5-.9.9-1.1s.8-.4,1.4-.4c.8,0,1.4.2,1.9.7.5.5.7,1.2.7,2.2l-1,.4Zm0,3.3v-3.3l1-.4v3.7h-1Z"/><path class="c" d="m477.9,423.6c-.6,0-1.1-.1-1.5-.4-.4-.3-.8-.7-1-1.2s-.4-1.1-.4-1.8.1-1.3.4-1.8.6-.9,1-1.2c.4-.3,1-.4,1.5-.4s1,.1,1.4.4c.4.3.7.7,1,1.2.2.5.3,1.1.3,1.8s-.1,1.3-.3,1.8c-.2.5-.5.9-1,1.2-.4.3-.9.4-1.4.4Zm.2-.9c.4,0,.7-.1,1-.3.3-.2.5-.5.7-.9.2-.4.3-.8.3-1.3s0-.9-.3-1.3c-.2-.4-.4-.7-.7-.9-.3-.2-.6-.3-1-.3s-.8.1-1.1.3c-.3.2-.6.5-.7.9-.2.4-.3.8-.3,1.3s0,.9.3,1.3c.2.4.4.7.8.9.3.2.7.3,1.1.3Zm2,.8v-1.2c0,0,0-7.9,0-7.9h1v9.1h-1Z"/><path class="c" d="m483,423.5v-6.5h1v6.5h-1Zm.6-3.5c0-.7.1-1.3.4-1.7s.6-.8,1-1c.4-.2.9-.3,1.3-.3v1c-.4,0-.7,0-1.1.2-.4.1-.6.3-.9.6-.2.3-.3.7-.3,1.2h-.5Z"/><path class="c" d="m490.2,423.6c-.6,0-1.2-.1-1.7-.4-.5-.3-.9-.7-1.1-1.2-.3-.5-.4-1.1-.4-1.8s.1-1.3.4-1.8c.3-.5.7-.9,1.1-1.2.5-.3,1-.4,1.7-.4s1.1.2,1.6.4.8.7,1,1.3c.2.5.4,1.2.4,1.9h-1c0-.6,0-1-.2-1.4-.1-.4-.4-.7-.7-.9-.3-.2-.6-.3-1.1-.3s-.8.1-1.1.3c-.3.2-.6.5-.7.9-.2.4-.3.8-.3,1.3s0,.9.3,1.3c.2.4.5.6.8.8s.7.3,1.1.3.8-.1,1.1-.3c.3-.2.6-.5.7-.8l.9.5c-.2.3-.4.6-.7.9-.3.3-.6.4-1,.6-.4.1-.8.2-1.2.2Zm-2.5-3.2v-.9h4.8v.9h-4.8Z"/><path class="c" d="m497.1,423.6c-.6,0-1.1-.1-1.5-.4-.4-.3-.8-.7-1-1.2-.2-.5-.4-1.1-.4-1.8s.1-1.3.4-1.8c.2-.5.6-.9,1-1.2.4-.3,1-.4,1.5-.4s1,.1,1.4.4c.4.3.7.7,1,1.2s.3,1.1.3,1.8-.1,1.3-.3,1.8-.5.9-1,1.2c-.4.3-.9.4-1.4.4Zm.2-.9c.4,0,.7-.1,1-.3.3-.2.5-.5.7-.9.2-.4.3-.8.3-1.3s0-.9-.3-1.3c-.2-.4-.4-.7-.7-.9-.3-.2-.6-.3-1-.3s-.8.1-1.1.3c-.3.2-.6.5-.7.9-.2.4-.3.8-.3,1.3s0,.9.3,1.3c.2.4.4.7.8.9.3.2.7.3,1.1.3Zm2,.8v-1.2c0,0,0-7.9,0-7.9h1v9.1h-1Z"/><path class="c" d="m504.4,423.6c-.5,0-.9,0-1.2-.2s-.7-.3-.9-.6-.4-.5-.5-.8l.9-.4c.1.3.4.5.7.7.3.2.6.3,1,.3s.8,0,1-.2c.3-.2.4-.4.4-.7s-.1-.5-.3-.7c-.2-.2-.5-.3-.9-.4l-.6-.2c-.6-.2-1-.4-1.4-.7-.3-.3-.5-.7-.5-1.1,0-.6.2-1.1.6-1.4.4-.3,1-.5,1.8-.5s.7,0,1,.2c.3.1.6.3.8.5.2.2.4.4.5.7l-.9.4c-.1-.3-.3-.5-.6-.6-.3-.1-.6-.2-.9-.2s-.7,0-.9.3c-.2.2-.3.4-.3.7s0,.3.3.5.5.3.8.4l.6.2c.4.1.8.3,1.1.5s.5.4.6.7.2.5.2.8-.1.7-.3,1c-.2.3-.5.5-.8.7s-.8.2-1.2.2Z"/><path class="c" d="m514.3,423.6c-.6,0-1.2-.1-1.7-.4-.5-.3-.9-.7-1.2-1.2-.3-.5-.4-1.1-.4-1.8s.1-1.3.4-1.8c.3-.5.7-.9,1.1-1.2.5-.3,1.1-.4,1.7-.4s1.2.1,1.7.4c.5.3.9.7,1.1,1.2.3.5.4,1.1.4,1.8s-.1,1.3-.4,1.8c-.3.5-.7.9-1.1,1.2-.5.3-1,.4-1.7.4Zm0-1c.4,0,.8-.1,1.1-.3.3-.2.6-.5.8-.9s.3-.8.3-1.3,0-.9-.3-1.3c-.2-.4-.4-.7-.8-.9-.3-.2-.7-.3-1.1-.3s-.8.1-1.1.3-.6.5-.8.9c-.2.4-.3.8-.3,1.3s0,.9.3,1.3c.2.4.4.7.8.9s.7.3,1.1.3Z"/><path class="c" d="m518.4,417.9v-.9h4.1v.9h-4.1Zm1.2,5.6v-7.2c0-.7.2-1.2.5-1.5.3-.3.8-.5,1.4-.5s.4,0,.6,0,.4.1.7.3l-.4.8c-.2,0-.4-.1-.5-.2s-.3,0-.4,0c-.3,0-.5,0-.7.3-.2.2-.2.5-.2.9v7.2h-1Z"/><path class="c" d="m398.6,441.5v-6.5h1v6.5h-1Zm.6-3.5c0-.7.1-1.3.4-1.7s.6-.8,1-1c.4-.2.9-.3,1.3-.3v1c-.4,0-.7,0-1.1.2-.4.1-.6.3-.9.6s-.3.7-.3,1.2h-.5Z"/><path class="c" d="m405.8,441.6c-.6,0-1.2-.1-1.7-.4-.5-.3-.9-.7-1.1-1.2-.3-.5-.4-1.1-.4-1.8s.1-1.3.4-1.8c.3-.5.6-.9,1.1-1.2.5-.3,1-.4,1.7-.4s1.1.2,1.6.4.8.7,1,1.3c.2.5.4,1.2.4,1.9h-1c0-.6,0-1-.2-1.4s-.4-.7-.7-.9c-.3-.2-.6-.3-1.1-.3s-.8.1-1.1.3c-.3.2-.6.5-.7.9-.2.4-.3.8-.3,1.3s0,.9.3,1.3c.2.4.5.6.8.8s.7.3,1.1.3.8-.1,1.1-.3c.3-.2.6-.5.7-.8l.9.5c-.2.3-.4.6-.7.9-.3.3-.6.4-1,.6-.4.1-.8.2-1.2.2Zm-2.5-3.2v-.9h4.8v.9h-4.8Z"/><path class="c" d="m410.1,441.5v-9.1h1v9.1h-1Z"/><path class="c" d="m415.8,441.6c-.6,0-1.2-.1-1.7-.4-.5-.3-.9-.7-1.1-1.2-.3-.5-.4-1.1-.4-1.8s.1-1.3.4-1.8c.3-.5.7-.9,1.1-1.2.5-.3,1-.4,1.7-.4s1.1.2,1.6.4.8.7,1,1.3c.2.5.4,1.2.4,1.9h-1c0-.6,0-1-.2-1.4-.1-.4-.4-.7-.7-.9-.3-.2-.6-.3-1.1-.3s-.8.1-1.1.3c-.3.2-.6.5-.7.9-.2.4-.3.8-.3,1.3s0,.9.3,1.3c.2.4.5.6.8.8s.7.3,1.1.3.8-.1,1.1-.3c.3-.2.6-.5.7-.8l.9.5c-.2.3-.4.6-.7.9-.3.3-.6.4-1,.6-.4.1-.8.2-1.2.2Zm-2.5-3.2v-.9h4.8v.9h-4.8Z"/><path class="c" d="m421.8,441.5l-2.7-6.5h1.1l2.7,6.5h-1Zm0,0l2.7-6.5h1.1l-2.7,6.5h-1Z"/><path class="c" d="m428.5,441.6c-.8,0-1.4-.2-1.8-.5-.4-.4-.6-.8-.6-1.5s.2-1.2.7-1.5,1.1-.5,1.8-.5h1.9v.9h-1.6c-.6,0-1,0-1.3.3-.3.2-.4.5-.4.9s.1.6.4.8c.3.2.6.3,1.1.3s.7,0,1-.3c.3-.2.5-.4.6-.7s.2-.6.2-1h.6c0,.9-.2,1.6-.6,2.1-.4.5-1.1.8-1.9.8Zm2-.2v-1.1c0,0,0-2.4,0-2.4,0-.5,0-.9-.2-1.3-.1-.3-.3-.6-.5-.8-.2-.2-.6-.3-.9-.3s-.7,0-1,.2c-.3.1-.5.4-.7.7l-.9-.4c.2-.3.4-.6.6-.8.2-.2.5-.4.9-.5.3-.1.7-.2,1.1-.2.6,0,1.1.1,1.5.4.4.2.7.6.9,1,.2.5.3,1,.3,1.7v3.5h-1Z"/><path class="c" d="m433.1,441.5v-6.5h1v1.2c0,0,0,5.3,0,5.3h-1Zm4.6-3.3c0-.6,0-1.1-.2-1.5s-.4-.6-.6-.7c-.3-.1-.6-.2-.9-.2-.6,0-1,.2-1.3.6-.3.4-.5,1-.5,1.7h-.5c0-.7,0-1.3.3-1.8.2-.5.5-.9.9-1.1s.8-.4,1.4-.4c.8,0,1.4.2,1.9.7.5.5.7,1.2.7,2.2l-1,.4Zm0,3.3v-3.3l1-.4v3.7h-1Z"/><path class="c" d="m439.7,435.9v-.9h4.1v.9h-4.1Zm3.1,5.7c-.6,0-1.1-.2-1.5-.5s-.5-.8-.5-1.4v-6.8h1v6.7c0,.3,0,.6.3.8s.4.3.7.3.2,0,.3,0c0,0,.2-.1.4-.2l.4.8c-.2.1-.4.2-.6.3-.2,0-.4,0-.6,0Z"/><path class="c" d="m451.1,441.6c-.6,0-1.1-.1-1.5-.4-.4-.3-.8-.7-1-1.2s-.4-1.1-.4-1.8.1-1.3.4-1.8.6-.9,1-1.2c.4-.3,1-.4,1.5-.4s1,.1,1.4.4c.4.3.7.7,1,1.2.2.5.3,1.1.3,1.8s-.1,1.3-.3,1.8c-.2.5-.5.9-1,1.2-.4.3-.9.4-1.4.4Zm.2-.9c.4,0,.7-.1,1-.3.3-.2.5-.5.7-.9.2-.4.3-.8.3-1.3s0-.9-.3-1.3c-.2-.4-.4-.7-.7-.9-.3-.2-.6-.3-1-.3s-.8.1-1.1.3c-.3.2-.6.5-.7.9-.2.4-.3.8-.3,1.3s0,.9.3,1.3c.2.4.4.7.8.9.3.2.7.3,1.1.3Zm2,.8v-1.2c0,0,0-7.9,0-7.9h1v9.1h-1Z"/><path class="c" d="m458.2,441.6c-.8,0-1.4-.2-1.8-.5-.4-.4-.6-.8-.6-1.5s.2-1.2.7-1.5,1.1-.5,1.8-.5h1.9v.9h-1.6c-.6,0-1,0-1.3.3-.3.2-.4.5-.4.9s.1.6.4.8c.3.2.6.3,1.1.3s.7,0,1-.3c.3-.2.5-.4.6-.7s.2-.6.2-1h.6c0,.9-.2,1.6-.6,2.1-.4.5-1.1.8-1.9.8Zm2-.2v-1.1c0,0,0-2.4,0-2.4,0-.5,0-.9-.2-1.3-.1-.3-.3-.6-.5-.8-.2-.2-.6-.3-.9-.3s-.7,0-1,.2c-.3.1-.5.4-.7.7l-.9-.4c.2-.3.4-.6.6-.8.2-.2.5-.4.9-.5.3-.1.7-.2,1.1-.2.6,0,1.1.1,1.5.4.4.2.7.6.9,1,.2.5.3,1,.3,1.7v3.5h-1Z"/><path class="c" d="m462.1,435.9v-.9h4.1v.9h-4.1Zm3.1,5.7c-.6,0-1.1-.2-1.5-.5s-.5-.8-.5-1.4v-6.8h1v6.7c0,.3,0,.6.3.8s.4.3.7.3.2,0,.3,0c0,0,.2-.1.4-.2l.4.8c-.2.1-.4.2-.6.3-.2,0-.4,0-.6,0Z"/><path class="c" d="m469.7,441.6c-.8,0-1.4-.2-1.8-.5-.4-.4-.6-.8-.6-1.5s.2-1.2.7-1.5,1.1-.5,1.8-.5h1.9v.9h-1.6c-.6,0-1,0-1.3.3-.3.2-.4.5-.4.9s.1.6.4.8c.3.2.6.3,1.1.3s.7,0,1-.3c.3-.2.5-.4.6-.7s.2-.6.2-1h.6c0,.9-.2,1.6-.6,2.1-.4.5-1.1.8-1.9.8Zm2-.2v-1.1c0,0,0-2.4,0-2.4,0-.5,0-.9-.2-1.3-.1-.3-.3-.6-.5-.8-.2-.2-.6-.3-.9-.3s-.7,0-1,.2c-.3.1-.5.4-.7.7l-.9-.4c.2-.3.4-.6.6-.8.2-.2.5-.4.9-.5.3-.1.7-.2,1.1-.2.6,0,1.1.1,1.5.4.4.2.7.6.9,1,.2.5.3,1,.3,1.7v3.5h-1Z"/><path class="c" d="m477.5,444.1v-9.1h1v1.2c0,0,0,7.9,0,7.9h-1Zm3.2-2.4c-.5,0-1-.1-1.4-.4-.4-.3-.7-.7-1-1.2-.2-.5-.3-1.1-.3-1.8s.1-1.3.3-1.8c.2-.5.5-.9,1-1.2.4-.3.9-.4,1.4-.4s1.1.1,1.5.4c.4.3.8.7,1,1.2s.4,1.1.4,1.8-.1,1.3-.4,1.8-.6.9-1,1.2c-.4.3-1,.4-1.5.4Zm-.2-.9c.4,0,.8-.1,1.1-.3.3-.2.6-.5.8-.9s.3-.8.3-1.3,0-.9-.3-1.3c-.2-.4-.4-.7-.7-.9-.3-.2-.7-.3-1.1-.3s-.7.1-1,.3c-.3.2-.5.5-.7.9s-.3.8-.3,1.3,0,.9.3,1.3c.2.4.4.7.7.9.3.2.6.3,1,.3Z"/><path class="c" d="m488,441.6c-.6,0-1.2-.1-1.7-.4-.5-.3-.9-.7-1.2-1.2-.3-.5-.4-1.1-.4-1.8s.1-1.3.4-1.8c.3-.5.7-.9,1.1-1.2.5-.3,1.1-.4,1.7-.4s1.2.1,1.7.4c.5.3.9.7,1.1,1.2.3.5.4,1.1.4,1.8s-.1,1.3-.4,1.8c-.3.5-.7.9-1.1,1.2-.5.3-1,.4-1.7.4Zm0-1c.4,0,.8-.1,1.1-.3s.6-.5.8-.9.3-.8.3-1.3,0-.9-.3-1.3c-.2-.4-.4-.7-.8-.9-.3-.2-.7-.3-1.1-.3s-.8.1-1.1.3c-.3.2-.6.5-.8.9-.2.4-.3.8-.3,1.3s0,.9.3,1.3.4.7.8.9c.3.2.7.3,1.1.3Z"/><path class="c" d="m493.3,433.5c-.2,0-.3,0-.5-.2s-.2-.3-.2-.5,0-.3.2-.5c.1-.1.3-.2.5-.2s.3,0,.5.2.2.3.2.5,0,.3-.2.5c-.1.1-.3.2-.5.2Zm-.5,8v-6.5h1.1v6.5h-1.1Z"/><path class="c" d="m495.7,441.5v-6.5h1v1.2c0,0,0,5.3,0,5.3h-1Zm4.6-3.3c0-.6,0-1.1-.2-1.5s-.4-.6-.6-.7c-.3-.1-.6-.2-.9-.2-.6,0-1,.2-1.3.6-.3.4-.5,1-.5,1.7h-.5c0-.7,0-1.3.3-1.8s.5-.9.9-1.1.8-.4,1.4-.4c.8,0,1.4.2,1.9.7s.7,1.2.7,2.2l-1,.4Zm0,3.3v-3.3l1-.4v3.7h-1Z"/><path class="c" d="m502.3,435.9v-.9h4.1v.9h-4.1Zm3.1,5.7c-.6,0-1.1-.2-1.5-.5s-.5-.8-.5-1.4v-6.8h1v6.7c0,.3,0,.6.3.8s.4.3.7.3.2,0,.3,0c0,0,.2-.1.4-.2l.4.8c-.2.1-.4.2-.6.3-.2,0-.4,0-.6,0Z"/><path class="c" d="m510.1,441.6c-.5,0-.9,0-1.2-.2s-.7-.3-.9-.6-.4-.5-.5-.8l.9-.4c.1.3.4.5.7.7.3.2.6.3,1,.3s.8,0,1-.2c.3-.2.4-.4.4-.7s-.1-.5-.3-.7c-.2-.2-.5-.3-.9-.4l-.6-.2c-.6-.2-1-.4-1.4-.7-.3-.3-.5-.7-.5-1.1,0-.6.2-1.1.6-1.4.4-.3,1-.5,1.8-.5s.7,0,1,.2c.3.1.6.3.8.5.2.2.4.4.5.7l-.9.4c-.1-.3-.3-.5-.6-.6-.3-.1-.6-.2-.9-.2s-.7,0-.9.3c-.2.2-.3.4-.3.7s0,.3.3.5.5.3.8.4l.6.2c.4.1.8.3,1.1.5s.5.4.6.7.2.5.2.8-.1.7-.3,1c-.2.3-.5.5-.8.7s-.8.2-1.2.2Z"/></g><g><path class="c" d="m110.8,268.9v-9.1h1.7v9.1h-1.7Zm.7-3.8v-1.5h2.5c.4,0,.7,0,.9-.3.2-.2.3-.5.3-.8s-.1-.6-.4-.9c-.3-.2-.6-.3-1-.3h-2.3v-1.4h2.4c.6,0,1.2,0,1.6.3.5.2.8.5,1.1.9.3.4.4.9.4,1.4s-.2.9-.5,1.3c-.3.4-.8.7-1.3.9-.6.2-1.2.3-2,.3h-1.8Zm0,4v-1.6h2.6c.4,0,.8-.1,1-.3.2-.2.4-.5.4-.9s-.1-.7-.4-.9-.6-.3-1.1-.3h-2.5v-1.4h1.6c.8,0,1.6.1,2.2.3.6.2,1.1.5,1.5.9.4.4.5.9.5,1.5s-.1,1-.4,1.4c-.3.4-.6.7-1.1.9-.5.2-1,.3-1.6.3h-2.8Z"/><path class="c" d="m118.4,266.1v-3.7h1.7v3.3l-1.7.4Zm1.7-.4c0,.4,0,.8.1,1s.2.4.4.5c.2.1.4.2.6.2.5,0,.8-.1,1-.4.2-.3.4-.7.4-1.2h.6c0,.7-.1,1.3-.3,1.8-.2.5-.5.8-.9,1.1-.4.3-.8.4-1.3.4-.8,0-1.4-.2-1.8-.7-.4-.5-.6-1.2-.6-2.2l1.7-.4Zm2.7,3.2v-1.2c-.1,0-.1-5.3-.1-5.3h1.7v6.5h-1.6Z"/><path class="c" d="m126.8,261.4c-.3,0-.5,0-.7-.3s-.3-.4-.3-.7,0-.5.3-.7c.2-.2.4-.3.7-.3s.5,0,.7.3.3.4.3.7,0,.5-.3.7c-.2.2-.4.3-.7.3Zm-.9,7.6v-6.5h1.7v6.5h-1.7Z"/><path class="c" d="m129.3,268.9v-9.1h1.7v9.1h-1.7Z"/><path class="c" d="m135.1,269.1c-.6,0-1.1-.1-1.6-.4-.4-.3-.8-.7-1-1.2-.2-.5-.4-1.1-.4-1.8s.1-1.3.4-1.8c.2-.5.6-.9,1-1.2s1-.4,1.6-.4,1,.1,1.4.4.7.7.9,1.2c.2.5.3,1.1.3,1.8s0,1.3-.3,1.8c-.2.5-.5.9-.9,1.2-.4.3-.8.4-1.4.4Zm.4-1.6c.3,0,.6,0,.8-.2.2-.2.4-.4.5-.6s.2-.6.2-.9,0-.7-.2-.9-.3-.5-.5-.6c-.2-.2-.5-.2-.8-.2s-.6,0-.8.2c-.2.2-.4.4-.6.6s-.2.6-.2.9,0,.7.2.9.3.5.6.6.5.2.8.2Zm1.6,1.4v-1.2c0,0,0-7.9,0-7.9h1.7v9.1h-1.6Z"/><path class="c" d="m143.3,268.9v-6.5h1.7v6.5h-1.7Zm1.2-3.4c0-.7.1-1.3.4-1.7.3-.5.6-.8,1.1-1,.4-.2.9-.3,1.3-.3v1.7c-.4,0-.8,0-1.1.1-.4,0-.6.3-.9.5s-.3.5-.3.8h-.5Z"/><path class="c" d="m151.2,269.1c-.6,0-1.2-.1-1.7-.4-.5-.3-.9-.7-1.2-1.2-.3-.5-.4-1.1-.4-1.8s.1-1.3.4-1.8c.3-.5.7-.9,1.2-1.2s1.1-.4,1.7-.4,1.1.1,1.6.4c.5.3.9.7,1.2,1.3s.4,1.3.4,2.1h-1.7c0-.6,0-1-.2-1.4-.1-.3-.3-.6-.5-.7-.2-.2-.5-.2-.8-.2s-.6,0-.9.2c-.2.1-.4.3-.5.6-.1.3-.2.6-.2,1.1s0,.7.2,1c.2.3.4.5.6.6.3.1.5.2.9.2s.6,0,.8-.2c.2-.1.4-.3.5-.6l1.6.6c-.2.4-.4.7-.7.9-.3.3-.6.5-1,.6-.4.1-.9.2-1.4.2Zm-2.2-3v-1.3h4.6v1.3h-4.6Z"/><path class="c" d="m155.5,271.5v-9.1h1.6v1.2c.1,0,.1,7.9.1,7.9h-1.7Zm3.7-2.4c-.5,0-1-.1-1.4-.4-.4-.3-.7-.7-.9-1.2-.2-.5-.3-1.1-.3-1.8s0-1.3.3-1.8.5-.9.9-1.2.8-.4,1.4-.4,1.1.1,1.6.4.8.7,1,1.2c.2.5.4,1.1.4,1.8s-.1,1.3-.4,1.8c-.2.5-.6.9-1,1.2-.4.3-1,.4-1.6.4Zm-.4-1.6c.3,0,.6,0,.8-.2s.4-.4.6-.6.2-.6.2-.9,0-.7-.2-.9c-.1-.3-.3-.5-.6-.6-.2-.2-.5-.2-.8-.2s-.6,0-.8.2c-.2.2-.4.4-.5.6-.1.3-.2.6-.2.9s0,.7.2.9.3.5.5.6.5.2.8.2Z"/><path class="c" d="m166.3,269.1c-.7,0-1.3-.1-1.8-.4-.5-.3-.9-.7-1.2-1.2-.3-.5-.4-1.1-.4-1.8s.1-1.3.4-1.8c.3-.5.7-.9,1.2-1.2.5-.3,1.1-.4,1.8-.4s1.3.1,1.8.4.9.7,1.2,1.2c.3.5.4,1.1.4,1.8s-.1,1.3-.4,1.8c-.3.5-.7.9-1.2,1.2-.5.3-1.1.4-1.7.4Zm0-1.6c.3,0,.6,0,.8-.2s.4-.4.6-.6c.1-.3.2-.6.2-.9s0-.7-.2-.9c-.1-.3-.3-.5-.6-.6-.2-.2-.5-.2-.8-.2s-.6,0-.9.2c-.2.2-.4.4-.6.6-.1.3-.2.6-.2.9s0,.7.2.9c.1.3.3.5.6.6.3.2.5.2.9.2Z"/><path class="c" d="m170.8,268.9v-6.5h1.7v6.5h-1.7Zm1.2-3.4c0-.7.1-1.3.4-1.7.3-.5.6-.8,1.1-1,.4-.2.9-.3,1.3-.3v1.7c-.4,0-.8,0-1.1.1-.4,0-.6.3-.9.5s-.3.5-.3.8h-.5Z"/><path class="c" d="m175.2,263.9v-1.5h4.4v1.5h-4.4Zm3.2,5.2c-.7,0-1.3-.2-1.6-.5-.4-.4-.6-.9-.6-1.5v-6.6h1.7v6.3c0,.3,0,.5.2.6.1.1.3.2.5.2s.2,0,.3,0c.1,0,.2,0,.3-.2l.6,1.3c-.2.2-.4.3-.7.4s-.5.1-.8.1Z"/><path class="c" d="m80.4,288.9l-2.8-9.1h1.1l2.8,9.1h-1.1Zm.1,0l2.7-9.1h1.1l-2.7,9.1h-1.1Zm5.3,0l-2.6-9.1h1.1l2.7,9.1h-1.1Zm0,0l2.8-9.1h1.1l-2.8,9.1h-1.1Z"/><path class="c" d="m93.2,289.1c-.6,0-1.2-.1-1.7-.4-.5-.3-.9-.7-1.1-1.2-.3-.5-.4-1.1-.4-1.8s.1-1.3.4-1.8c.3-.5.6-.9,1.1-1.2s1-.4,1.7-.4,1.1.1,1.6.4.8.7,1,1.3c.2.5.4,1.2.4,1.9h-1c0-.6,0-1-.2-1.4s-.4-.7-.7-.9c-.3-.2-.6-.3-1.1-.3s-.8.1-1.1.3c-.3.2-.6.5-.7.9-.2.4-.3.8-.3,1.3s0,.9.3,1.3c.2.4.5.6.8.8.3.2.7.3,1.1.3s.8-.1,1.1-.3c.3-.2.6-.5.7-.8l.9.5c-.2.3-.4.6-.7.9-.3.3-.6.4-1,.6-.4.1-.8.2-1.2.2Zm-2.5-3.2v-.9h4.8v.9h-4.8Z"/><path class="c" d="m101.5,285.7c0,.6,0,1.1.2,1.5s.4.6.6.7c.3.1.6.2.9.2.6,0,1-.2,1.3-.6.3-.4.5-1,.5-1.7h.5c0,.7,0,1.3-.3,1.8s-.5.9-.9,1.1-.8.4-1.4.4c-.8,0-1.4-.2-1.9-.7s-.7-1.2-.7-2.2l1-.4Zm-1,.4v-3.7h1v3.3l-1,.4Zm4.6,2.8v-1.2c0,0,0-5.3,0-5.3h1v6.5h-1Z"/><path class="c" d="m110.1,289.1c-.5,0-.9,0-1.2-.2-.4-.1-.7-.3-.9-.6-.2-.2-.4-.5-.5-.8l.9-.4c.1.3.4.5.7.7.3.2.6.3,1,.3s.7,0,1-.2.4-.4.4-.7-.1-.5-.3-.7c-.2-.2-.5-.3-.9-.4l-.6-.2c-.6-.2-1-.4-1.4-.7s-.5-.7-.5-1.1c0-.6.2-1.1.6-1.4.4-.3,1-.5,1.8-.5s.7,0,1,.2c.3.1.6.3.8.5.2.2.4.4.5.7l-.9.4c-.1-.3-.3-.5-.6-.6s-.6-.2-.9-.2-.7,0-.9.3c-.2.2-.3.4-.3.7s0,.3.3.5.5.3.8.4l.7.2c.4.1.8.3,1.1.5.3.2.5.4.7.7s.2.5.2.8-.1.7-.3,1-.5.5-.8.7c-.4.2-.8.2-1.2.2Z"/><path class="c" d="m116.8,289.1c-.6,0-1.2-.1-1.7-.4-.5-.3-.9-.7-1.1-1.2-.3-.5-.4-1.1-.4-1.8s.1-1.3.4-1.8c.3-.5.6-.9,1.1-1.2s1-.4,1.7-.4,1.1.1,1.6.4.8.7,1,1.3c.2.5.4,1.2.4,1.9h-1c0-.6,0-1-.2-1.4s-.4-.7-.7-.9c-.3-.2-.6-.3-1.1-.3s-.8.1-1.1.3c-.3.2-.6.5-.7.9-.2.4-.3.8-.3,1.3s0,.9.3,1.3c.2.4.5.6.8.8.3.2.7.3,1.1.3s.8-.1,1.1-.3c.3-.2.6-.5.7-.8l.9.5c-.2.3-.4.6-.7.9-.3.3-.6.4-1,.6-.4.1-.8.2-1.2.2Zm-2.5-3.2v-.9h4.8v.9h-4.8Z"/><path class="c" d="m123.4,288.9l3.7-9.1h1.1l-3.7,9.1h-1.2Zm1.8-2.6v-1h5.1v1h-5.1Zm5.6,2.6l-3.7-9.1h1.1l3.7,9.1h-1.2Z"/><path class="c" d="m133.3,288.9v-9.1h1.1v9.1h-1.1Z"/><path class="c" d="m139.1,283.3v-.9h4.1v.9h-4.1Zm3.1,5.7c-.6,0-1.1-.2-1.5-.5-.3-.3-.5-.8-.5-1.4v-6.8h1v6.7c0,.3,0,.6.3.8s.4.3.7.3.2,0,.3,0,.2-.1.4-.2l.4.8c-.2.1-.4.2-.6.3-.2,0-.4,0-.6,0Z"/><path class="c" d="m147.5,289.1c-.6,0-1.2-.1-1.7-.4-.5-.3-.9-.7-1.2-1.2-.3-.5-.4-1.1-.4-1.8s.1-1.3.4-1.8c.3-.5.7-.9,1.1-1.2.5-.3,1.1-.4,1.7-.4s1.2.1,1.7.4c.5.3.9.7,1.1,1.2.3.5.4,1.1.4,1.8s-.1,1.3-.4,1.8c-.3.5-.7.9-1.1,1.2-.5.3-1,.4-1.7.4Zm0-1c.4,0,.8-.1,1.1-.3.3-.2.6-.5.8-.9s.3-.8.3-1.3,0-.9-.3-1.3-.4-.7-.8-.9c-.3-.2-.7-.3-1.1-.3s-.8.1-1.1.3-.6.5-.8.9c-.2.4-.3.8-.3,1.3s0,.9.3,1.3c.2.4.4.7.8.9s.7.3,1.1.3Z"/><path class="c" d="m157.5,289.1c-.8,0-1.4-.2-1.8-.5-.4-.4-.6-.8-.6-1.5s.2-1.2.7-1.5c.4-.4,1.1-.5,1.8-.5h1.9v.9h-1.6c-.6,0-1,0-1.3.3s-.4.5-.4.9.1.6.4.8c.3.2.6.3,1.1.3s.7,0,1-.3c.3-.2.5-.4.6-.7s.2-.6.2-1h.6c0,.9-.2,1.6-.7,2.1s-1.1.8-1.9.8Zm2-.2v-1.1c0,0,0-2.4,0-2.4,0-.5,0-.9-.2-1.3-.1-.3-.3-.6-.5-.8s-.6-.3-.9-.3-.7,0-1,.2c-.3.1-.5.4-.7.7l-.9-.4c.2-.3.4-.6.6-.8.2-.2.5-.4.9-.5s.7-.2,1.1-.2c.6,0,1.1.1,1.5.4.4.2.7.6.9,1,.2.5.3,1,.3,1.7v3.5h-1Z"/><path class="c" d="m164.3,289.1c-.5,0-.9,0-1.2-.2-.4-.1-.7-.3-.9-.6-.2-.2-.4-.5-.5-.8l.9-.4c.1.3.4.5.7.7.3.2.6.3,1,.3s.8,0,1-.2.4-.4.4-.7-.1-.5-.3-.7c-.2-.2-.5-.3-.9-.4l-.6-.2c-.6-.2-1-.4-1.4-.7-.3-.3-.5-.7-.5-1.1,0-.6.2-1.1.6-1.4s1-.5,1.8-.5.7,0,1,.2c.3.1.6.3.8.5.2.2.4.4.5.7l-.9.4c-.1-.3-.3-.5-.6-.6-.3-.1-.6-.2-.9-.2s-.7,0-.9.3-.3.4-.3.7,0,.3.3.5.5.3.8.4l.6.2c.4.1.8.3,1.1.5.3.2.5.4.6.7s.2.5.2.8-.1.7-.3,1-.5.5-.8.7c-.4.2-.8.2-1.2.2Z"/><path class="c" d="m170.4,289.1c-.5,0-.9,0-1.2-.2-.4-.1-.7-.3-.9-.6-.2-.2-.4-.5-.5-.8l.9-.4c.1.3.4.5.7.7.3.2.6.3,1,.3s.8,0,1-.2.4-.4.4-.7-.1-.5-.3-.7c-.2-.2-.5-.3-.9-.4l-.6-.2c-.6-.2-1-.4-1.4-.7-.3-.3-.5-.7-.5-1.1,0-.6.2-1.1.6-1.4s1-.5,1.8-.5.7,0,1,.2c.3.1.6.3.8.5.2.2.4.4.5.7l-.9.4c-.1-.3-.3-.5-.6-.6-.3-.1-.6-.2-.9-.2s-.7,0-.9.3-.3.4-.3.7,0,.3.3.5.5.3.8.4l.6.2c.4.1.8.3,1.1.5.3.2.5.4.6.7s.2.5.2.8-.1.7-.3,1-.5.5-.8.7c-.4.2-.8.2-1.2.2Z"/><path class="c" d="m174.7,280.9c-.2,0-.3,0-.5-.2-.1-.1-.2-.3-.2-.5s0-.3.2-.5c.1-.1.3-.2.5-.2s.3,0,.5.2c.1.1.2.3.2.5s0,.3-.2.5-.3.2-.5.2Zm-.5,8v-6.5h1.1v6.5h-1.1Z"/><path class="c" d="m177.2,288.9v-6.5h1v1.2c0,0,0,5.3,0,5.3h-1Zm4.6-3.3c0-.6,0-1.1-.2-1.5s-.4-.6-.6-.7c-.3-.1-.6-.2-.9-.2-.6,0-1,.2-1.3.6-.3.4-.5,1-.5,1.7h-.5c0-.7,0-1.3.3-1.8.2-.5.5-.9.9-1.1.4-.3.8-.4,1.4-.4.8,0,1.4.2,1.9.7.5.5.7,1.2.7,2.2l-1,.4Zm0,3.3v-3.3l1-.4v3.7h-1Zm4.6-3.3c0-.6,0-1.1-.2-1.5s-.4-.6-.6-.7c-.3-.1-.6-.2-.9-.2-.6,0-1,.2-1.3.6-.3.4-.5,1-.5,1.7h-.5c0-.7,0-1.3.3-1.8.2-.5.5-.9.9-1.1.4-.3.8-.4,1.4-.4.8,0,1.4.2,1.9.7.5.5.7,1.2.7,2.2l-1,.4Zm0,3.3v-3.3l1-.4v3.7h-1Z"/><path class="c" d="m189.6,280.9c-.2,0-.3,0-.5-.2-.1-.1-.2-.3-.2-.5s0-.3.2-.5c.1-.1.3-.2.5-.2s.3,0,.5.2c.1.1.2.3.2.5s0,.3-.2.5-.3.2-.5.2Zm-.5,8v-6.5h1.1v6.5h-1.1Z"/><path class="c" d="m192,288.9v-9.1h1v9.1h-1Z"/><path class="c" d="m196.9,289.1c-.8,0-1.4-.2-1.8-.5-.4-.4-.6-.8-.6-1.5s.2-1.2.7-1.5c.4-.4,1.1-.5,1.8-.5h1.9v.9h-1.6c-.6,0-1,0-1.3.3s-.4.5-.4.9.1.6.4.8c.3.2.6.3,1.1.3s.7,0,1-.3c.3-.2.5-.4.6-.7s.2-.6.2-1h.6c0,.9-.2,1.6-.7,2.1s-1.1.8-1.9.8Zm2-.2v-1.1c0,0,0-2.4,0-2.4,0-.5,0-.9-.2-1.3-.1-.3-.3-.6-.5-.8s-.6-.3-.9-.3-.7,0-1,.2c-.3.1-.5.4-.7.7l-.9-.4c.2-.3.4-.6.6-.8.2-.2.5-.4.9-.5s.7-.2,1.1-.2c.6,0,1.1.1,1.5.4.4.2.7.6.9,1,.2.5.3,1,.3,1.7v3.5h-1Z"/><path class="c" d="m200.8,283.3v-.9h4.1v.9h-4.1Zm3.1,5.7c-.6,0-1.1-.2-1.5-.5-.3-.3-.5-.8-.5-1.4v-6.8h1v6.7c0,.3,0,.6.3.8s.4.3.7.3.2,0,.3,0,.2-.1.4-.2l.4.8c-.2.1-.4.2-.6.3-.2,0-.4,0-.6,0Z"/><path class="c" d="m209.2,289.1c-.6,0-1.2-.1-1.7-.4-.5-.3-.9-.7-1.1-1.2-.3-.5-.4-1.1-.4-1.8s.1-1.3.4-1.8c.3-.5.6-.9,1.1-1.2s1-.4,1.7-.4,1.1.1,1.6.4.8.7,1,1.3c.2.5.4,1.2.4,1.9h-1c0-.6,0-1-.2-1.4s-.4-.7-.7-.9c-.3-.2-.6-.3-1.1-.3s-.8.1-1.1.3c-.3.2-.6.5-.7.9-.2.4-.3.8-.3,1.3s0,.9.3,1.3c.2.4.5.6.8.8.3.2.7.3,1.1.3s.8-.1,1.1-.3c.3-.2.6-.5.7-.8l.9.5c-.2.3-.4.6-.7.9-.3.3-.6.4-1,.6-.4.1-.8.2-1.2.2Zm-2.5-3.2v-.9h4.8v.9h-4.8Z"/><path class="c" d="m111,306.9v-9.1h1v9.1h-1Zm1-2.1l-.7-.7,3.5-3.7h1.3l-4.1,4.4Zm3.1,2.1l-2.5-3.7.7-.7,3.1,4.5h-1.3Z"/><path class="c" d="m120,307.1c-.6,0-1.2-.1-1.7-.4-.5-.3-.9-.7-1.1-1.2-.3-.5-.4-1.1-.4-1.8s.1-1.3.4-1.8c.3-.5.6-.9,1.1-1.2s1-.4,1.7-.4,1.1.1,1.6.4.8.7,1,1.3c.2.5.4,1.2.4,1.9h-1c0-.6,0-1-.2-1.4s-.4-.7-.7-.9c-.3-.2-.6-.3-1.1-.3s-.8.1-1.1.3c-.3.2-.6.5-.7.9-.2.4-.3.8-.3,1.3s0,.9.3,1.3c.2.4.5.6.8.8.3.2.7.3,1.1.3s.8-.1,1.1-.3c.3-.2.6-.5.7-.8l.9.5c-.2.3-.4.6-.7.9-.3.3-.6.4-1,.6-.4.1-.8.2-1.2.2Zm-2.5-3.2v-.9h4.8v.9h-4.8Z"/><path class="c" d="m126.1,306.9l-2.8-6.5h1.1l2.4,5.8.3.7h-1Zm-1.4,2.8c-.2,0-.4,0-.6,0s-.4-.1-.7-.3l.4-.9c.2,0,.4.2.5.2.2,0,.3,0,.4,0,.2,0,.4,0,.6-.2.2-.1.3-.3.4-.5l.7-1.8,2.4-5.8h1.1l-3.1,7.4c-.2.4-.3.7-.5,1-.2.3-.4.5-.6.6-.3.1-.6.2-1,.2Z"/><path class="c" d="m133.6,301.3v-.9h4.1v.9h-4.1Zm1.2,5.6v-7.2c0-.7.2-1.2.5-1.5.3-.3.8-.5,1.4-.5s.4,0,.6,0,.4.1.7.3l-.4.8c-.2,0-.4-.1-.5-.2-.1,0-.3,0-.4,0-.3,0-.5,0-.7.3-.2.2-.2.5-.2.9v7.2h-1Z"/><path class="c" d="m139.6,298.9c-.2,0-.3,0-.5-.2s-.2-.3-.2-.5,0-.3.2-.5c.1-.1.3-.2.5-.2s.3,0,.5.2c.1.1.2.3.2.5s0,.3-.2.5c-.1.1-.3.2-.5.2Zm-.5,8v-6.5h1.1v6.5h-1.1Z"/><path class="c" d="m142,306.9v-6.5h1v1.2c0,0,0,5.3,0,5.3h-1Zm4.6-3.3c0-.6,0-1.1-.2-1.5s-.4-.6-.6-.7c-.3-.1-.6-.2-.9-.2-.6,0-1,.2-1.3.6-.3.4-.5,1-.5,1.7h-.5c0-.7,0-1.3.3-1.8.2-.5.5-.9.9-1.1.4-.3.8-.4,1.4-.4.8,0,1.4.2,1.9.7.5.5.7,1.2.7,2.2l-1,.4Zm0,3.3v-3.3l1-.4v3.7h-1Z"/><path class="c" d="m151.8,307.1c-.6,0-1.1-.1-1.5-.4-.4-.3-.8-.7-1-1.2-.2-.5-.4-1.1-.4-1.8s.1-1.3.4-1.8c.2-.5.6-.9,1-1.2.4-.3,1-.4,1.5-.4s1,.1,1.4.4c.4.3.7.7,1,1.2s.3,1.1.3,1.8-.1,1.3-.3,1.8-.5.9-1,1.2c-.4.3-.9.4-1.4.4Zm.2-.9c.4,0,.7-.1,1-.3.3-.2.5-.5.7-.9.2-.4.3-.8.3-1.3s0-.9-.3-1.3c-.2-.4-.4-.7-.7-.9-.3-.2-.6-.3-1-.3s-.8.1-1.1.3-.6.5-.7.9c-.2.4-.3.8-.3,1.3s0,.9.3,1.3c.2.4.4.7.8.9s.7.3,1.1.3Zm2,.8v-1.2c0,0,0-7.9,0-7.9h1v9.1h-1Z"/><path class="c" d="m157.4,298.9c-.2,0-.3,0-.5-.2-.1-.1-.2-.3-.2-.5s0-.3.2-.5c.1-.1.3-.2.5-.2s.3,0,.5.2c.1.1.2.3.2.5s0,.3-.2.5-.3.2-.5.2Zm-.5,8v-6.5h1.1v6.5h-1.1Z"/><path class="c" d="m159.9,306.9v-6.5h1v1.2c0,0,0,5.3,0,5.3h-1Zm4.6-3.3c0-.6,0-1.1-.2-1.5s-.4-.6-.6-.7c-.3-.1-.6-.2-.9-.2-.6,0-1,.2-1.3.6-.3.4-.5,1-.5,1.7h-.5c0-.7,0-1.3.3-1.8.2-.5.5-.9.9-1.1.4-.3.8-.4,1.4-.4.8,0,1.4.2,1.9.7.5.5.7,1.2.7,2.2l-1,.4Zm0,3.3v-3.3l1-.4v3.7h-1Z"/><path class="c" d="m169.7,306.9c-.6,0-1.1-.1-1.5-.4-.4-.3-.8-.7-1-1.2-.2-.5-.4-1.1-.4-1.7s.1-1.2.4-1.7c.2-.5.6-.9,1-1.2.4-.3,1-.4,1.5-.4s1,.1,1.4.4.7.7,1,1.2c.2.5.3,1.1.3,1.7s-.1,1.2-.3,1.7-.5.9-1,1.2-.9.4-1.4.4Zm0,2.8c-.4,0-.8,0-1.1-.1-.3,0-.6-.2-.9-.3s-.4-.2-.5-.3l.4-.8c.1,0,.3.1.5.2s.5.2.7.2c.3,0,.6,0,.9,0s.8,0,1.1-.3.6-.4.8-.8c.2-.4.3-.8.3-1.4v-5.9h1v5.9c0,.7-.1,1.4-.4,1.9-.3.5-.7.9-1.1,1.1-.5.3-1,.4-1.7.4Zm.2-3.7c.4,0,.7-.1,1-.3.3-.2.5-.5.7-.9.2-.4.2-.8.2-1.3s0-.9-.3-1.2-.4-.6-.7-.8c-.3-.2-.6-.3-1-.3s-.8.1-1.1.3c-.3.2-.6.5-.7.8s-.3.8-.3,1.2,0,.9.3,1.3c.2.4.4.6.7.9s.7.3,1.1.3Z"/><path class="c" d="m177,307.1c-.5,0-.9,0-1.2-.2-.4-.1-.7-.3-.9-.6-.2-.2-.4-.5-.5-.8l.9-.4c.1.3.4.5.7.7.3.2.6.3,1,.3s.7,0,1-.2.4-.4.4-.7-.1-.5-.3-.7c-.2-.2-.5-.3-.9-.4l-.6-.2c-.6-.2-1-.4-1.4-.7s-.5-.7-.5-1.1c0-.6.2-1.1.6-1.4.4-.3,1-.5,1.8-.5s.7,0,1,.2c.3.1.6.3.8.5.2.2.4.4.5.7l-.9.4c-.1-.3-.3-.5-.6-.6s-.6-.2-.9-.2-.7,0-.9.3c-.2.2-.3.4-.3.7s0,.3.3.5.5.3.8.4l.7.2c.4.1.8.3,1.1.5.3.2.5.4.7.7s.2.5.2.8-.1.7-.3,1-.5.5-.8.7c-.4.2-.8.2-1.2.2Z"/></g><g><path class="c" d="m203.9,234v-14h2.7v14h-2.7Zm2-5.9v-2.5h8.5v2.5h-8.5Zm7.2,5.9v-14h2.7v14h-2.7Z"/><path class="c" d="m223.2,234.2c-1,0-1.9-.2-2.7-.7-.8-.4-1.4-1.1-1.9-1.8-.4-.8-.7-1.7-.7-2.7s.2-1.9.7-2.7c.4-.8,1.1-1.4,1.8-1.8s1.7-.7,2.7-.7,1.9.2,2.7.7,1.4,1.1,1.8,1.8c.4.8.7,1.7.7,2.7s-.2,1.9-.7,2.7c-.4.8-1,1.4-1.8,1.8-.8.4-1.7.7-2.7.7Zm0-2.4c.5,0,.9-.1,1.3-.4.4-.2.7-.6.9-1,.2-.4.3-.9.3-1.5s-.1-1-.3-1.5c-.2-.4-.5-.8-.9-1-.4-.2-.8-.4-1.3-.4s-.9.1-1.3.4c-.4.2-.7.6-.9,1-.2.4-.3.9-.3,1.5s.1,1,.3,1.5c.2.4.5.8.9,1,.4.2.8.4,1.3.4Z"/><path class="c" d="m232.2,234l-3.4-10h2.7l3.2,10h-2.5Zm.3,0l3.2-10h2.3l-3.2,10h-2.3Zm6.6,0l-3.1-10h2.3l3.2,10h-2.3Zm0,0l3.3-10h2.7l-3.4,10h-2.6Z"/><path class="c" d="m252.7,222.4c-.4,0-.8-.1-1.1-.4-.3-.3-.5-.7-.5-1.1s.2-.8.5-1.1.7-.5,1.1-.5.8.2,1.1.5c.3.3.5.7.5,1.1s-.1.8-.5,1.1c-.3.3-.7.4-1.1.4Zm-1.3,11.6v-10h2.6v10h-2.6Z"/><path class="c" d="m255.6,226.2v-2.2h6.8v2.2h-6.8Zm5,8c-1.1,0-1.9-.3-2.5-.8-.6-.5-.8-1.3-.8-2.3v-10.2h2.6v9.6c0,.4,0,.8.3,1,.2.2.5.3.8.3s.3,0,.4,0,.3-.1.5-.3l.9,2c-.3.2-.7.4-1.1.6-.4.2-.8.2-1.2.2Z"/><path class="c" d="m271.7,234l-3.4-10h2.7l3.2,10h-2.5Zm.3,0l3.2-10h2.3l-3.2,10h-2.3Zm6.6,0l-3.1-10h2.3l3.2,10h-2.3Zm0,0l3.3-10h2.7l-3.4,10h-2.6Z"/><path class="c" d="m290.3,234.2c-1,0-1.9-.2-2.7-.7-.8-.4-1.4-1.1-1.8-1.8-.4-.8-.7-1.7-.7-2.7s.2-1.9.7-2.7c.4-.8,1.1-1.4,1.8-1.8.8-.4,1.7-.7,2.7-.7s1.9.2,2.7.7c.8.4,1.4,1.1,1.8,1.8.4.8.7,1.7.7,2.7s-.2,1.9-.7,2.7c-.4.8-1,1.4-1.8,1.8-.8.4-1.7.7-2.7.7Zm0-2.4c.5,0,.9-.1,1.3-.4.4-.2.7-.6.9-1,.2-.4.3-.9.3-1.5s-.1-1-.3-1.5c-.2-.4-.5-.8-.9-1-.4-.2-.8-.4-1.3-.4s-.9.1-1.3.4c-.4.2-.7.6-.9,1-.2.4-.3.9-.3,1.5s.1,1,.3,1.5c.2.4.5.8.9,1,.4.2.8.4,1.3.4Z"/><path class="c" d="m297.2,234v-10h2.6v10h-2.6Zm1.9-5.3c0-1.1.2-2,.6-2.7.4-.7,1-1.2,1.6-1.6s1.3-.5,2.1-.5v2.6c-.6,0-1.2,0-1.7.2-.5.1-1,.4-1.3.7-.3.3-.5.8-.5,1.3h-.8Z"/><path class="c" d="m304.8,234v-14h2.6v14h-2.6Zm2.5-2.5l-1.6-1.8,5.1-5.6h3.1l-6.7,7.5Zm3.9,2.5l-3.3-4.8,1.7-1.8,4.7,6.7h-3.1Z"/><path class="c" d="m319.3,234.2c-.6,0-1.2,0-1.8-.3-.6-.2-1.1-.5-1.5-.8-.4-.4-.8-.8-1-1.4l2.3-1c.2.3.5.6.8.8.3.2.7.4,1.2.4s.8,0,1-.2c.2-.1.4-.3.4-.5s0-.4-.3-.5c-.2-.1-.5-.2-.8-.3l-.9-.2c-1-.3-1.7-.7-2.3-1.2-.6-.6-.8-1.2-.8-1.9,0-1,.3-1.8,1-2.4.7-.6,1.6-.8,2.8-.8s1.2,0,1.8.3c.5.2,1,.4,1.4.8.4.3.7.7.8,1.2l-2.2,1c0-.3-.3-.5-.7-.6-.4-.2-.7-.2-1.1-.2s-.6,0-.8.2-.3.4-.3.6,0,.3.3.4c.2.1.5.2.8.3l1.3.3c.7.2,1.2.4,1.6.8.4.4.7.7.9,1.2.2.4.3.9.3,1.3,0,.6-.2,1.1-.5,1.6s-.8.8-1.4,1.1c-.6.3-1.3.4-2.1.4Z"/></g></svg>