<?xml version="1.0" encoding="UTF-8"?><svg id="a" xmlns="http://www.w3.org/2000/svg" viewBox="0 0 2010 440"><defs><style>.b{fill:#0078e5;}.c{fill:#fff;}</style></defs><polygon class="b" points="1720 220 1880 330 1720 390 1580 320 1720 220"/><path class="c" d="m2001.2,367.8l-89.7-61.7c11.9-26.3,18.4-55.5,18.4-86.2,0-116-94-210-210-210s-210,94-210,210,7,61.6,19.5,88.5l-60.4,41.5h-19.1V90h40V20h-160v70h40v260h-40v70h160.9l78.3-53.9c38.2,39.4,91.6,63.9,150.8,63.9s111-23.7,149-62l89.7,61.7,12.7-18.5h0s17-24.7,17-24.7h0s12.7-18.5,12.7-18.5Zm-281.2-282.8c71.8,0,130,60.4,130,135s-5.1,43-14.2,61.4l-115.8-79.6-115.8,79.6c-9.1-18.4-14.2-39.3-14.2-61.4,0-74.6,58.2-135,130-135Zm0,270c-40,0-75.8-18.8-99.6-48.3l99.6-68.5,99.6,68.5c-23.8,29.5-59.6,48.3-99.6,48.3Z"/><g><path class="c" d="m186.3,196.6l-47.3-11.4c-17.5-4.6-31.4-11.1-41.9-19.7-10.5-8.6-15.7-21-15.7-37.3s6.6-33.9,20-44.7c13.3-10.8,31.3-16.2,54.1-16.2s40.6,5.1,55.6,15.4c15,10.3,25.6,23.4,31.6,39.3l58.1-18.8c-5.7-16.3-14.7-31.2-27.1-44.5-12.4-13.3-28-24-47-32.2-19-8.2-41.4-12.3-67.3-12.3-44.8,0-79.2,10.3-103.2,30.8s-35.9,49.4-35.9,86.6,4.3,36.2,12.8,50.4c8.6,14.2,20.3,26,35.3,35.3,15,9.3,31.8,16.4,50.4,21.4l46.7,12c22.4,5.7,40.3,13.7,53.6,23.9,13.3,10.3,20,23.6,20,39.9s-7.8,32.3-23.4,43.3c-15.6,11-36.7,16.3-63.3,16-22.4,0-41.3-5.6-56.7-16.8-15.4-11.2-25.7-24.2-31.1-39l-58.7,18.2c3.4,12.2,9.3,23.6,17.7,34.2,8.4,10.6,19.1,20.2,32.2,28.8,13.1,8.5,28.3,15.3,45.6,20.2,17.3,4.9,36.4,7.4,57.3,7.4,31.2,0,57.3-5,78.4-15.1,21.1-10.1,37-23.7,47.9-41,10.8-17.3,16.2-37.1,16.2-59.6s-10-48.3-29.9-69.5c-20-21.3-48.4-36.3-85.2-45Z"/><rect class="c" x="359.6" y="21" width="57.6" height="399"/><path class="c" d="m666,143.5c-18.1-10.3-40.8-15.4-68.1-15.4s-38.4,3-53.6,9.1c-15.2,6.1-28,14.4-38.5,25.1-10.5,10.6-19.1,22.2-25.9,34.8l52.4,19.4c7.2-12.5,16.2-21.7,27.1-27.6,10.8-5.9,23.5-8.8,37.9-8.8s27.5,3.5,37.1,10.5c9.5,7,16.4,17.3,20.8,30.8,2.6,8,4.4,17.2,5.5,27.6h-73.6c-35.3,0-62.9,7.8-82.6,23.4-19.8,15.6-29.6,38-29.6,67.3s9.4,49.2,28.2,64.4c18.8,15.2,45.3,22.8,79.5,22.8s61-11.2,78.1-33.6c.8-1,1.6-2.1,2.3-3.2l1.7,30h54.7l.6-155.6c.4-30-4-55.1-13.1-75.2-9.1-20.1-22.7-35.3-40.8-45.6Zm-13.4,195.8c-6.1,11.6-14.6,20.8-25.6,27.6-11,6.8-23.9,10.3-38.8,10.3s-30.5-3.4-40.2-10.3-14.5-16.3-14.5-28.5,5.3-24.9,16-32.5c10.6-7.6,28.9-11.4,54.7-11.4h57.6v6.8c0,13.7-3,26.3-9.1,37.9Z"/><path class="c" d="m903.1,371c-4.4,1.5-8.6,2.3-12.8,2.3-12.5,0-22.2-3.5-29.1-10.5-6.8-7-10.3-17.4-10.3-31.1v-146.5h79.8v-50.2h-79.8V46.1h-57.6v88.9h-47.9v50.2h47.9v156.2c0,27.4,7.8,48.5,23.4,63.3,15.6,14.8,38,22.2,67.3,22.2s18.9-1.6,28.2-4.8c9.3-3.2,18.7-8.1,28.2-14.5l-21.1-45c-6.5,4.2-11.9,7-16.2,8.6Z"/><path class="c" d="m1157.6,361.3c-11.8,8.4-26.8,12.5-45,12.5s-31.2-3.9-44.5-11.7c-13.3-7.8-23.9-18.7-31.9-32.8-6.3-11.1-10.1-24.1-11.4-38.8h218.4c0-33.4-5.8-62.3-17.4-86.6-11.6-24.3-27.5-43-47.6-56.1-20.1-13.1-43.1-19.7-69-19.7s-52.4,6.4-74.1,19.1c-21.7,12.7-38.7,30.3-51,52.7-12.4,22.4-18.5,48.3-18.5,77.5s6.2,55.1,18.5,77.5c12.3,22.4,29.2,40,50.4,52.7,21.3,12.7,45.8,19.1,73.5,19.1s40.2-3,56.7-9.1c16.5-6.1,31-14.7,43.3-25.9,12.3-11.2,22.3-24.4,29.9-39.6l-53-23.4c-6.5,13.3-15.6,24.1-27.4,32.5Zm-94.3-169.6c12.3-7.8,27.1-11.7,44.2-11.7s30.8,4.1,42.2,12.3c11.4,8.2,20.1,20.4,26.2,36.8,1.7,4.6,3.2,9.6,4.4,14.8h-152.2c1.6-6.8,3.8-13.1,6.5-18.8,6.8-14.4,16.4-25.6,28.8-33.3Z"/></g></svg>